<svg width="19" height="19" fill="none" xmlns="http://www.w3.org/2000/svg"><g clip-path="url(#clip0_434_4090)"><path d="M9.5 2.375a2.382 2.382 0 012.375 2.375A2.382 2.382 0 019.5 7.125 2.382 2.382 0 017.125 4.75 2.382 2.382 0 019.5 2.375zm0 11.875c3.206 0 6.887 1.532 7.125 2.375H2.375c.273-.855 3.93-2.375 7.125-2.375zM9.5 0a4.749 4.749 0 00-4.75 4.75A4.749 4.749 0 009.5 9.5a4.749 4.749 0 004.75-4.75A4.749 4.749 0 009.5 0zm0 11.875c-3.17 0-9.5 1.591-9.5 4.75V19h19v-2.375c0-3.159-6.33-4.75-9.5-4.75z" fill="#BCBCBC"/></g><defs><clipPath id="clip0_434_4090"><path fill="#fff" d="M0 0h19v19H0z"/></clipPath></defs></svg>