<svg width="31" height="31" fill="none" xmlns="http://www.w3.org/2000/svg"><g clip-path="url(#clip0_465_11007)" fill-rule="evenodd" clip-rule="evenodd" fill="#F20000"><path d="M2.659.06h25.743c-.01.11-.028.219-.028.328-.002 9.496-.002 18.992-.002 28.488v.382h1.232v1.718H1.459V29.24h1.23v-.394c0-9.476 0-18.952-.002-28.428C2.687.3 2.67.18 2.66.061zm.69 29.168H15.19V.728H3.348v28.5zM15.871.726V29.23h4.956l-.24-1.8h-3.244V2.541h9.234v24.897h-2.06l-.237 1.79h3.43V.726H15.872zm10.073 4.488c-.095.088-.14.127-.181.168-2.55 2.55-5.102 5.097-7.644 7.654-.097.097-.151.28-.152.423-.01 2.195-.006 4.39-.006 6.586v.313c.108-.095.17-.142.224-.196 2.535-2.535 5.072-5.068 7.6-7.611a.695.695 0 00.168-.448c.01-2.175.007-4.35.007-6.526 0-.097-.008-.195-.016-.363zm-7.983 21.557H20.5l-.29-2.295h2.072c0-.511.007-.983-.008-1.454-.002-.069-.099-.16-.173-.197-.55-.262-.811-.7-.819-1.3-.004-.361 0-.724 0-1.086v-1.205l1.319 1.097 1.307-1.086c0 .874.021 1.677-.007 2.478a1.142 1.142 0 01-.712 1.043c-.28.122-.306.284-.243.548l.334-.155.286.522c-.2.278-.793.22-.608.807h1.946l-.296 2.279h1.33v-13.42c-.078.068-.125.104-.167.146-2.556 2.554-5.113 5.108-7.662 7.67-.09.091-.14.263-.141.397-.01 1.63-.006 3.262-.006 4.892v.32zm.018-17.357l6.235-6.238H17.98v6.238zm7.978-6.264c-.31.045-.59-.098-.847.16-2.328 2.34-4.665 4.67-6.997 7.006-.061.06-.142.142-.144.216-.012.548-.006 1.096-.006 1.694.086-.065.127-.089.16-.122 2.57-2.567 5.14-5.135 7.707-7.705.054-.054.12-.13.122-.197.012-.339.005-.679.005-1.052zM2.091 30.325h26.873v-.402H2.091v.402zm22.075-5.172h-3.223l.53 4.02h2.163l.53-4.02zm-2.232-4.522v.89c0 .04.001.08.006.12.04.348.268.584.595.62.313.035.632-.147.683-.462.059-.365.044-.743.064-1.184l-.68.553-.668-.537z"/><path d="M13.717 27.424H4.48V2.54h9.238v24.884zm-8.604-.653h7.962V13.239c-.078.069-.125.105-.167.147-2.549 2.548-5.099 5.095-7.64 7.65a.656.656 0 00-.161.422C5.096 23.129 5.1 24.8 5.1 26.472c0 .089.008.178.013.299zM13.1 5.089c-.106.095-.144.127-.18.161-2.556 2.557-5.115 5.111-7.665 7.675-.096.098-.148.282-.149.426-.01 2.185-.006 4.37-.006 6.556 0 .096.01.191.017.33.09-.079.144-.121.193-.17 2.543-2.542 5.087-5.083 7.622-7.632a.654.654 0 00.16-.42c.01-2.196.008-4.391.008-6.587V5.09zM5.116 9.301l6.128-6.127H5.116V9.3zM13.1 3.192c-.533-.125-.887.025-1.245.39a366.614 366.614 0 01-6.091 6.086c-.495.482-.773.958-.67 1.647.038.247.007.503.007.802.088-.063.115-.077.135-.097 2.579-2.577 5.157-5.154 7.733-7.734.06-.06.12-.148.125-.225.014-.29.006-.58.006-.869zm1.054 13.188h.615v2.665h-.615V16.38zm2.139 0h.605v2.666h-.605V16.38z"/></g><defs><clipPath id="clip0_465_11007"><path fill="#fff" d="M0 0h31v31H0z"/></clipPath></defs></svg>