<svg width="33" height="33" fill="none" xmlns="http://www.w3.org/2000/svg"><path d="M7.013 2.357h18.975v28.286H7.013V2.357z" fill="#fff"/><path d="M25.575 2.77v27.46H7.425V2.77h18.15zm.825-.826H6.6v29.111h19.8V1.945z" fill="#F20000"/><path d="M6.6 3.3h19.8v26.4H6.6V3.3z" fill="#fff"/><path d="M23.513 28.53V4.47l8.25-3.053v30.166l-8.25-3.053z" fill="#fff"/><path d="M31.35 2.01v28.98l-7.425-2.748V4.759l7.425-2.75zm.825-1.185L23.1 4.184v24.632l9.075 3.36V.825z" fill="#F20000"/><path d="M28.875 5.565v6.81H26.4V6.481l2.475-.916zM29.7 4.38l-4.125 1.527V13.2H29.7V4.38zm-.825 11.295v11.76l-2.475-.916V15.675h2.475zm.825-.825h-4.125v12.243L29.7 28.62V14.85z" fill="#F20000"/><path d="M1.238 1.417l8.25 3.054v24.058l-8.25 3.054V1.417z" fill="#fff"/><path d="M1.65 2.01l7.425 2.748v23.484L1.65 30.99V2.01zM.825.825v31.35L9.9 28.817V4.184L.825.825z" fill="#F20000"/><path d="M4.125 5.565l2.475.916v5.894H4.125v-6.81zM3.3 4.38v8.82h4.125V5.907L3.3 4.38zm3.3 11.295V26.52l-2.475.916v-11.76H6.6zm.825-.825H3.3v13.77l4.125-1.527V14.85z" fill="#F20000"/></svg>