<svg width="4" height="6" fill="none" xmlns="http://www.w3.org/2000/svg"><mask id="path-1-inside-1_465_8355" fill="#fff"><path d="M4 3l-.279-.253L.748 0 0 .507 2.7 3 0 5.493.748 6l2.973-2.747L4 3z"/></mask><path d="M4 3l-.279-.253L.748 0 0 .507 2.7 3 0 5.493.748 6l2.973-2.747L4 3z" fill="#333"/><path d="M4 3l-.673.74L5 5.26V3H4zm-.279-.253l-.678.734.005.005.673-.74zM.748 0l.679-.735-.583-.538-.656.445.56.828zM0 .507l-.56-.828-1.045.707.926.855L0 .507zM2.7 3l.678.735L4.173 3l-.795-.735L2.699 3zM0 5.493l-.679-.734-.926.855 1.044.707L0 5.493zM.748 6l-.56.828.656.445.583-.538L.748 6zm2.973-2.747l-.673-.74-.005.006.678.734zM4 3h1V.739L3.327 2.26 4 3zm.673-.74l-.279-.253-1.346 1.48.28.253 1.345-1.48zM4.4 2.012L1.427-.735.07.735 3.043 3.48 4.4 2.012zM.188-.828l-.749.507L.561 1.335l.748-.507L.188-.828zm-.867 2.07l2.7 2.493 1.357-1.47-2.7-2.493-1.357 1.47zm2.7 1.023L-.68 4.76.68 6.228l2.699-2.493-1.357-1.47zM-.561 6.321l.749.507 1.121-1.656-.748-.507-1.122 1.656zm1.988.414L4.4 3.988l-1.357-1.47L.07 5.266l1.357 1.47zm2.967-2.742l.279-.253-1.346-1.48-.279.254 1.346 1.48zM3 3h2-2z" fill="#B5B5B5" mask="url(#path-1-inside-1_465_8355)"/></svg>