<svg width="19" height="19" fill="none" xmlns="http://www.w3.org/2000/svg"><path d="M16.625 16.925h.396l-.107-.381c-.052-.183-.181-.345-.326-.481a3.477 3.477 0 00-.57-.42c-.45-.276-1.052-.555-1.74-.804-1.376-.497-3.132-.889-4.778-.889-1.64 0-3.387.389-4.76.885-.687.248-1.289.526-1.742.802-.226.138-.422.28-.574.421-.147.137-.278.297-.335.476l-.125.391h14.661zM12.175 4.75A2.682 2.682 0 009.5 2.075 2.682 2.682 0 006.825 4.75 2.682 2.682 0 009.5 7.425a2.682 2.682 0 002.675-2.675zm-7.125 0A4.449 4.449 0 019.5.3a4.449 4.449 0 014.45 4.45A4.449 4.449 0 019.5 9.2a4.449 4.449 0 01-4.45-4.45zM.3 16.625c0-.68.338-1.297.942-1.854.606-.56 1.46-1.038 2.43-1.427 1.943-.778 4.28-1.169 5.828-1.169s3.885.39 5.827 1.169c.972.389 1.825.867 2.431 1.427.604.557.942 1.174.942 1.854V18.7H.3v-2.075z" fill="#fff" stroke="#333" stroke-width=".6"/></svg>