<svg width="20" height="21" fill="none" xmlns="http://www.w3.org/2000/svg"><g clip-path="url(#clip0_465_11117)"><path d="M15.404 10.42h0c-.291.53-.857.88-1.502.88H6.645l-.057.103-1.055 1.91-.163.296h11.638v1.51h-11.3a1.713 1.713 0 01-1.501-2.54s0 0 0 0L5.5 10.251l.05-.09-.044-.093-3.45-7.245L2 2.71H.158V1.2h2.807l.847 1.794.054.115h14.31a.75.75 0 01.66 1.115h0l-3.432 6.196zm-10.5-5.802h-.317l.136.286 2.271 4.773.054.114h6.972l.057-.103 2.645-4.773.165-.297H4.904zM4 18.182a1.711 1.711 0 013.424 0c0 .939-.771 1.708-1.714 1.708A1.71 1.71 0 014 18.18zm9.584 0a1.711 1.711 0 013.424 0c0 .939-.773 1.709-1.717 1.709a1.71 1.71 0 01-1.707-1.71z" fill="#fff" stroke="#333" stroke-width=".4"/></g><defs><clipPath id="clip0_465_11117"><path fill="#fff" d="M0 0h20v21H0z"/></clipPath></defs></svg>