<svg width="14" height="13" fill="none" xmlns="http://www.w3.org/2000/svg"><path d="M13.45.554A1.697 1.697 0 0012.246.05H1.755C1.303.05.869.231.549.554h12.902zm0 0c.32.323.5.76.5 1.217v6.244c0 .457-.18.895-.5 1.217-.32.323-.753.504-1.205.504H3.994l-.015.014-3.205 3.08.035.037-.035-.036a.426.426 0 01-.6-.01.435.435 0 01-.124-.304V1.771c0-.456.18-.894.5-1.217h12.9zm-.357 7.461s0 0 0 0c0 .227-.09.444-.248.605a.844.844 0 01-.6.25H3.822a.427.427 0 00-.295.12h0L.992 11.426l-.085.081V1.771c0-.226.09-.444.248-.604 0 0 0 0 0 0l.036.035 11.902 6.813zm0 0V1.771a.858.858 0 00-.248-.604l.248 6.848zm-9.2-2.076h0a.437.437 0 000 .433h0a.428.428 0 00.371.216h5.703a.428.428 0 00.371-.216l-6.445-.433zm0 0a.428.428 0 01.371-.217h5.703c.153 0 .295.083.371.217H3.893zm2.884-1.605H4.264a.428.428 0 01-.37-.216.437.437 0 010-.434.428.428 0 01.37-.216h2.513a.432.432 0 01.37.65.428.428 0 01-.37.216z" stroke="#fff" stroke-width=".1"/></svg>