<svg width="16" height="17" fill="none" xmlns="http://www.w3.org/2000/svg"><g clip-path="url(#clip0_528_24420)"><path d="M12.332 8.442h0a1.374 1.374 0 01-1.21.718H5.32l-.043.078-.843 1.545-.12.222h9.302v1.245h-9.05c-1.048 0-1.717-1.134-1.21-2.073 0 0 0 0 0 0l1.035-1.885.036-.067-.032-.069-2.76-5.865-.04-.086H.116V.96h2.261l.68 1.458.04.087H14.54a.62.62 0 01.536.92v.002l-2.745 5.015zM3.922 3.75h-.236l.101.214 1.817 3.864.04.086h5.567l.042-.078 2.116-3.863.122-.223H3.923zm-.73 10.969c0-.77.616-1.396 1.375-1.396.76 0 1.383.627 1.383 1.396 0 .768-.624 1.395-1.383 1.395A1.387 1.387 0 013.19 14.72zm7.666 0c0-.77.617-1.396 1.375-1.396.76 0 1.384.627 1.384 1.396 0 .768-.624 1.395-1.384 1.395a1.387 1.387 0 01-1.375-1.395z" fill="#333" stroke="#F5F5F5" stroke-width=".3"/></g><defs><clipPath id="clip0_528_24420"><path fill="#fff" d="M0 0h16v17H0z"/></clipPath></defs></svg>