<svg width="22" height="15" fill="none" xmlns="http://www.w3.org/2000/svg"><path d="M21.325 7.942l-.001-.004-1.929-4.552a.481.481 0 00-.44-.3h-3.857V.557a.494.494 0 00-.483-.506H4.01A.471.471 0 003.667.2a.52.52 0 00-.14.358c0 .134.05.263.14.358.09.094.214.148.342.148h10.124v7.08c0 .28.216.506.483.506H20.4v3.54h-1.515a1.994 1.994 0 00-1.041-1.325 1.839 1.839 0 00-1.637 0c-.519.257-.9.743-1.042 1.325h-5.44a1.994 1.994 0 00-1.042-1.325 1.839 1.839 0 00-1.637 0c-.518.257-.9.743-1.041 1.325H4.49V8.143a.494.494 0 00-.482-.506.494.494 0 00-.482.506v4.552c0 .28.215.506.482.506h1.997a1.994 1.994 0 001.041 1.325 1.839 1.839 0 001.637 0c.519-.257.9-.742 1.042-1.325h5.44a1.995 1.995 0 001.042 1.325 1.84 1.84 0 001.637 0c.518-.257.9-.742 1.042-1.325h1.997a.494.494 0 00.482-.506V8.143a.522.522 0 00-.041-.201zm-13.46 5.764a.942.942 0 01-.681-.296 1.037 1.037 0 01-.283-.715c0-.268.102-.526.283-.715a.942.942 0 01.682-.296c.255 0 .5.106.681.296.181.19.283.447.283.715 0 .268-.102.525-.283.715a.943.943 0 01-.681.297zm9.161 0a.942.942 0 01-.682-.296 1.037 1.037 0 01-.282-.715c0-.268.101-.526.282-.715a.943.943 0 01.682-.296.94.94 0 01.682.296c.18.19.282.447.282.715 0 .268-.101.525-.282.715a.943.943 0 01-.682.297zm-1.928-9.608h3.543l1.5 3.54h-5.043v-3.54z" fill="#333"/><path d="M9.794 3.086a.494.494 0 00-.482-.505H1.116a.494.494 0 00-.482.505c0 .28.216.506.482.506h8.196a.495.495 0 00.482-.506zm-.482 2.023H4.01a.494.494 0 00-.483.506c0 .279.216.505.483.505h5.303a.494.494 0 00.482-.505.494.494 0 00-.482-.506z" fill="#333"/></svg>