<svg width="13" height="15" fill="none" xmlns="http://www.w3.org/2000/svg"><g clip-path="url(#clip0_434_3933)"><path d="M6.298 14.945h0c-2.404-1.047-3.964-2.008-4.925-3.15C.415 10.653.05 9.326.05 7.536V2.714c0-.128.052-.252.144-.343a.495.495 0 01.348-.143c1.521 0 2.928-.504 3.956-1.01A10.56 10.56 0 006.195.193l-.03-.039.03.04a.496.496 0 01.61 0c.018.014.673.521 1.701 1.026 1.03.505 2.436 1.01 3.953 1.01.13 0 .255.05.347.142a.483.483 0 01.144.343v4.823c0 1.79-.365 3.117-1.323 4.257-.96 1.143-2.521 2.104-4.925 3.15h0a.497.497 0 01-.404 0zm.182-.986l.02.01.02-.01c2.331-1.046 3.695-1.95 4.475-2.946.782-.999.972-2.084.972-3.476V3.205l-.045-.005a11.368 11.368 0 01-5.393-2.006l-.029-.02-.029.02A11.367 11.367 0 011.079 3.2l-.045.005v4.332c0 1.392.19 2.477.973 3.476.78.996 2.143 1.9 4.474 2.946zm-.557-6.07l.035.034.036-.035L7.776 6.12a.498.498 0 01.477-.126l.013-.049-.013.049a.49.49 0 01.35.345h0a.484.484 0 01-.128.471L6.308 8.953h0a.495.495 0 01-.699 0h0L4.526 7.882s0 0 0 0a.484.484 0 01-.128-.471h0a.49.49 0 01.35-.346h0a.498.498 0 01.477.127s0 0 0 0l.698.696zm-1.189-.872a.548.548 0 01.526.14l-.526-.14z" fill="#333" stroke="#fff" stroke-width=".1"/></g><defs><clipPath id="clip0_434_3933"><path fill="#fff" d="M0 0h13v15H0z"/></clipPath></defs></svg>