<svg width="20" height="20" fill="none" xmlns="http://www.w3.org/2000/svg"><path d="M9.848 3.22l.152.178.152-.178C11.206 1.983 12.821 1.2 14.5 1.2c2.97 0 5.3 2.33 5.3 5.3 0 1.824-.819 3.495-2.299 5.305-1.481 1.811-3.605 3.737-6.184 6.075l-.001.002h0L9.998 19.08l-1.314-1.188h0l-.03-.026c-2.565-2.332-4.68-4.253-6.156-6.06C1.019 9.996.2 8.324.2 6.5c0-2.97 2.33-5.3 5.3-5.3 1.68 0 3.294.783 4.348 2.02zm-5.835 7.902c1.39 1.624 3.374 3.423 5.75 5.573l.096.096.141.142.141-.142.097-.096c2.375-2.15 4.36-3.949 5.749-5.572C17.375 9.5 18.2 8.018 18.2 6.5c0-2.11-1.59-3.7-3.7-3.7-1.569 0-3.101.975-3.695 2.36H9.204C8.601 3.775 7.069 2.8 5.5 2.8c-2.11 0-3.7 1.59-3.7 3.7 0 1.519.825 3 2.213 4.623z" fill="#fff" stroke="#333" stroke-width=".4"/></svg>