<svg width="16" height="16" fill="none" xmlns="http://www.w3.org/2000/svg"><g clip-path="url(#clip0_528_24425)"><path d="M7.886 2.57L8 2.702l.114-.134A4.64 4.64 0 0111.6.95a4.207 4.207 0 014.25 4.25c0 1.463-.656 2.802-1.841 4.25-1.186 1.45-2.886 2.991-4.948 4.861l-.002.002h0l-1.06.965-1.058-.957h0l-.024-.021c-2.052-1.866-3.744-3.403-4.926-4.849C.806 8.001.15 6.663.15 5.2A4.207 4.207 0 014.4.95a4.64 4.64 0 013.486 1.62zM3.218 8.891c1.111 1.298 2.698 2.736 4.599 4.457l.077.077.106.106.106-.106.077-.077c1.9-1.72 3.488-3.16 4.599-4.457 1.11-1.298 1.768-2.48 1.768-3.692 0-1.683-1.267-2.95-2.95-2.95-1.253 0-2.478.78-2.95 1.888H7.358C6.878 3.031 5.654 2.25 4.4 2.25c-1.683 0-2.95 1.267-2.95 2.95 0 1.211.658 2.394 1.768 3.692z" fill="#333" stroke="#F5F5F5" stroke-width=".3"/></g><defs><clipPath id="clip0_528_24425"><path fill="#fff" d="M0 0h16v16H0z"/></clipPath></defs></svg>