<svg width="15" height="14" fill="none" xmlns="http://www.w3.org/2000/svg"><path fill-rule="evenodd" clip-rule="evenodd" d="M4.162 5.598l.367-.256a.63.63 0 00.23-.812L3.75 1.88c-.092-.299-.322-.47-.643-.513-1.608-.17-3.353.77-3.077 2.393.735 4.231 6.383 9.53 10.976 10.214 1.699.256 2.71-1.41 2.525-2.906a.711.711 0 00-.505-.598l-2.893-.94a.805.805 0 00-.872.213l-.276.342c-.275.3-.735.385-1.056.171-1.516-.94-2.893-2.265-3.95-3.675-.23-.3-.137-.727.184-.983z" fill="#F20000"/><path d="M7.468.94c-.275 0-.505-.213-.505-.47 0-.256.23-.47.505-.47C11.602 0 15 3.162 15 7.008c0 .257-.23.47-.505.47-.276 0-.505-.213-.505-.47C13.99 3.675 11.05.94 7.468.94z" fill="#F20000"/><path d="M7.468 2.65c-.275 0-.505-.214-.505-.47 0-.257.23-.47.505-.47 3.17 0 5.741 2.393 5.741 5.298 0 .257-.23.47-.505.47-.276 0-.506-.213-.506-.47 0-2.393-2.112-4.358-4.73-4.358z" fill="#F20000"/><path d="M7.469 4.316c-.276 0-.506-.214-.506-.47s.23-.47.506-.47c2.158 0 3.903 1.624 3.903 3.632 0 .256-.23.47-.505.47-.276 0-.505-.213-.505-.47 0-1.495-1.286-2.692-2.893-2.692z" fill="#F20000"/></svg>