<svg width="18" height="17" fill="none" xmlns="http://www.w3.org/2000/svg"><path d="M7.487 14.034a7.4 7.4 0 01-4.03-1.167A7.073 7.073 0 01.774 9.722a6.824 6.824 0 01-.425-4.06A6.957 6.957 0 012.325 2.06 7.31 7.31 0 016.032.129a7.447 7.447 0 014.187.397 7.193 7.193 0 013.252 2.589A6.871 6.871 0 0114.69 7.02a6.906 6.906 0 01-2.108 4.95 7.343 7.343 0 01-5.095 2.063zm0-12.681a5.972 5.972 0 00-3.254.938 5.71 5.71 0 00-2.167 2.535 5.508 5.508 0 00-.347 3.276 5.613 5.613 0 001.59 2.91 5.899 5.899 0 002.99 1.56 6.01 6.01 0 003.38-.315 5.808 5.808 0 002.627-2.086 5.545 5.545 0 00.988-3.151 5.57 5.57 0 00-1.695-3.999 5.923 5.923 0 00-4.112-1.668z" fill="#BCBCBC"/><path d="M16.73 16.908l-4.82-4.65.986-.957 4.82 4.648-.986.959z" fill="#BCBCBC"/></svg>