<svg width="25" height="25" fill="none" xmlns="http://www.w3.org/2000/svg"><path d="M4.375 25h16.25A4.375 4.375 0 0025 20.625V4.375A4.375 4.375 0 0020.625 0H4.375A4.375 4.375 0 000 4.375v16.25A4.375 4.375 0 004.375 25z" fill="url(#paint0_radial_536_1764)"/><path d="M17.188 21.875H7.813a4.688 4.688 0 01-4.688-4.688V7.813a4.687 4.687 0 014.688-4.687h9.375a4.688 4.688 0 014.687 4.688v9.375a4.688 4.688 0 01-4.688 4.687zM7.813 5A2.816 2.816 0 005 7.813v9.375A2.816 2.816 0 007.813 20h9.375A2.816 2.816 0 0020 17.187V7.813A2.816 2.816 0 0017.187 5H7.813z" fill="#fff"/><path d="M12.5 17.813a5.313 5.313 0 110-10.626 5.313 5.313 0 010 10.625zm0-8.75a3.438 3.438 0 100 6.875 3.438 3.438 0 000-6.876zm5.313-.625a.937.937 0 100-1.875.937.937 0 000 1.875z" fill="#fff"/><defs><radialGradient id="paint0_radial_536_1764" cx="0" cy="0" r="1" gradientUnits="userSpaceOnUse" gradientTransform="rotate(180 -.251 12.246) scale(57.7324)"><stop stop-color="#F9ED32"/><stop offset=".36" stop-color="#EE2A7B"/><stop offset=".44" stop-color="#D22A8A"/><stop offset=".6" stop-color="#8B2AB2"/><stop offset=".83" stop-color="#1B2AF0"/><stop offset=".88" stop-color="#002AFF"/></radialGradient></defs></svg>