<svg width="24" height="24" fill="none" xmlns="http://www.w3.org/2000/svg"><g clip-path="url(#clip0_536_1770)"><path fill-rule="evenodd" clip-rule="evenodd" d="M22.812 1.317c.54.714.784 1.898.904 3.338.159 2.148.223 4.726.284 7.39-.08 2.713-.111 5.449-.284 7.389-.136 1.489-.425 2.486-.907 3.09-.614.604-1.791 1.114-3.47 1.235-2.042.174-4.562.172-7.341.241-3.09-.053-5.185-.03-7.383-.24-1.715-.119-2.837-.623-3.527-1.23-.511-.687-.661-1.417-.803-3.128C.108 17.426.07 14.75.002 12.06c.1-2.676.107-5.373.285-7.389.12-1.59.307-2.66.79-3.34C1.755.753 2.911.466 4.635.324c2.36-.276 4.819-.33 7.36-.324 2.615.004 5.125.079 7.365.3 1.51.12 2.761.38 3.45 1.017h.002z" fill="#2CA3DB"/><path d="M17.804 5.836L5.317 10.652c-.853.341-.847.817-.156 1.029l3.116.972 1.192 3.653c.145.4.074.559.493.559.324 0 .468-.148.649-.324.114-.113.796-.775 1.558-1.515l3.24 2.394c.595.33 1.025.158 1.174-.554l2.125-10.02c.216-.872-.334-1.267-.904-1.01zm-9.04 6.594l7.02-4.428c.35-.213.672-.098.408.136l-6.01 5.422-.237 2.496-1.18-3.626z" fill="#fff"/></g><defs><clipPath id="clip0_536_1770"><path fill="#fff" d="M0 0h24v24H0z"/></clipPath></defs></svg>