<svg width="25" height="25" fill="none" xmlns="http://www.w3.org/2000/svg"><g clip-path="url(#clip0_536_1761)"><path fill-rule="evenodd" clip-rule="evenodd" d="M23.763 1.372c.563.744.816 1.977.941 3.477.166 2.237.232 4.923.296 7.697-.083 2.827-.116 5.677-.296 7.698-.141 1.55-.442 2.59-.945 3.22-.64.628-1.866 1.16-3.615 1.285-2.127.182-4.751.18-7.646.251-3.219-.055-5.401-.032-7.691-.25-1.786-.124-2.955-.648-3.674-1.282-.533-.715-.688-1.475-.836-3.257-.184-2.058-.225-4.847-.295-7.65.105-2.787.111-5.596.297-7.696.124-1.657.32-2.771.823-3.48.706-.6 1.91-.9 3.706-1.047C7.288.05 9.848-.006 12.494 0c2.724.004 5.34.082 7.672.312 1.574.126 2.877.397 3.594 1.06h.003z" fill="#675CA8"/><path d="M12.18 4.779a7.378 7.378 0 100 14.755 7.378 7.378 0 000-14.755zm-.087 3.166a.246.246 0 01.132-.155.402.402 0 01.157-.03s.065-.005.122-.003c1.95.052 3.635 1.437 3.878 3.534.03.215.048.43.053.647 0 .069.003.193-.081.273a.252.252 0 01-.112.06.3.3 0 01-.16-.087.327.327 0 01-.074-.208 6.452 6.452 0 00-.162-1.13c-.324-1.378-1.573-2.464-2.982-2.621a7.505 7.505 0 00-.491-.044c-.112-.005-.223-.025-.266-.098a.19.19 0 01-.014-.138zm.766 1.296a.864.864 0 01-.181-.027c-.079-.02-.14-.037-.186-.091a.257.257 0 01-.057-.16.25.25 0 01.08-.13.283.283 0 01.196-.048c1.15.057 1.83.722 1.83.722.208.208.384.446.521.706.2.373.321.783.358 1.205a.496.496 0 01-.039.252.264.264 0 01-.086.117.245.245 0 01-.147.044.268.268 0 01-.098-.064.23.23 0 01-.064-.11c-.06-.528-.143-1.043-.468-1.489-.412-.564-.995-.815-1.659-.927zm1.504 2.005c-.012.153-.074.21-.09.223a.245.245 0 01-.132.053.26.26 0 01-.134-.067.291.291 0 01-.076-.179c-.015-.132-.11-.555-.326-.75-.136-.123-.323-.187-.597-.227-.11-.015-.216-.038-.254-.11a.184.184 0 01-.004-.14c.045-.144.221-.186.235-.189.117.016.863.131 1.204.689.126.21.186.452.174.697zm2.054 4.109c-.28.34-.55.7-.882.983-.284.246-.656.275-1.027.123-3.04-1.24-5.224-3.352-6.483-6.4-.031-.076-.057-.155-.084-.233-.236-.684-.165-.95.397-1.41.185-.15.378-.288.579-.416.335-.218.702-.215.956.09a14.04 14.04 0 011.167 1.597c.258.418.166.655-.213.97-.087.073-.18.138-.268.21-.219.183-.311.4-.215.69.423 1.26 1.306 2.057 2.537 2.48.143.05.367-.061.523-.15.117-.066.185-.217.276-.33.246-.306.64-.435.966-.228.583.37 1.143.781 1.691 1.202.118.09.148.295.21.436-.052.16-.059.3-.13.386z" fill="#fff"/></g><defs><clipPath id="clip0_536_1761"><path fill="#fff" d="M0 0h25v25H0z"/></clipPath></defs></svg>