<svg width="16" height="21" fill="none" xmlns="http://www.w3.org/2000/svg"><g clip-path="url(#clip0_434_3129)"><path d="M7.835 20.247a1.154 1.154 0 01-.505-.439c-1.946-2.66-3.906-5.31-5.842-7.977A6.98 6.98 0 01.194 8.373 7.456 7.456 0 014.752.74c2.983-1.248 5.8-.868 8.322 1.129a7.25 7.25 0 011.856 2.166c.465.833.755 1.746.854 2.688a7.23 7.23 0 01-1.433 5.339 9888.24 9888.24 0 00-5.655 7.7 1.21 1.21 0 01-.534.485h-.327zM10.61 7.635a2.48 2.48 0 00-.754-1.784 2.661 2.661 0 00-1.839-.75 2.663 2.663 0 00-1.85.72 2.483 2.483 0 00-.785 1.772 2.478 2.478 0 00.739 1.79c.481.48 1.14.754 1.831.766a2.676 2.676 0 001.87-.725 2.495 2.495 0 00.788-1.79z" fill="#F20000"/></g><defs><clipPath id="clip0_434_3129"><path fill="#fff" transform="translate(0 .021)" d="M0 0h16v20.366H0z"/></clipPath></defs></svg>