<svg width="220" height="55" fill="none" xmlns="http://www.w3.org/2000/svg"><path fill-rule="evenodd" clip-rule="evenodd" d="M0 25.774v13.46h6.127v-7.98h7.98v-5.521H6.155v.041H0zm0-4.497h6.127v-.033h9.833v-5.522H0v5.556zm19.166-5.555V29.26c0 3.112.974 5.63 2.921 7.553 1.948 1.9 4.441 2.85 7.481 2.85 2.993 0 5.474-.962 7.446-2.886 1.971-1.947 2.957-4.453 2.957-7.517V15.722h-6.128v14c0 1.33-.392 2.387-1.176 3.171-.783.76-1.816 1.14-3.099 1.14-1.282 0-2.315-.38-3.1-1.14-.783-.784-1.175-1.84-1.175-3.17v-14h-6.127zm39.33 23.512h6.84l-6.2-8.728c2.47-1.52 3.706-3.752 3.706-6.697 0-2.422-.855-4.37-2.565-5.843-1.71-1.496-3.883-2.244-6.52-2.244h-9.226v23.512h6.127v-7.303h2.53l5.308 7.303zm-7.838-12.646v-5.522h3.135c.855 0 1.532.25 2.03.748.523.499.785 1.164.785 1.995 0 .831-.262 1.508-.784 2.03-.499.5-1.176.749-2.03.749h-3.136zm37.953-10.866h-6.128v11.756L69.73 15.295h-1.96v23.94h6.128V27.3L86.65 39.662h1.96v-23.94zm10.822 0h-6.127v23.512h6.127V15.722zm9.751 5.522v17.99h6.128v-17.99h7.053v-5.522h-20.234v5.522h7.053zm15.742-5.522V29.26c0 3.112.974 5.63 2.922 7.553 1.947 1.9 4.441 2.85 7.481 2.85 2.992 0 5.474-.962 7.445-2.886 1.972-1.947 2.957-4.453 2.957-7.517V15.722h-6.127v14c0 1.33-.392 2.387-1.176 3.171-.784.76-1.817 1.14-3.099 1.14-1.283 0-2.316-.38-3.1-1.14-.783-.784-1.175-1.84-1.175-3.17v-14h-6.128zm39.33 23.512h6.84l-6.198-8.728c2.47-1.52 3.705-3.752 3.705-6.697 0-2.422-.855-4.37-2.565-5.843-1.71-1.496-3.884-2.244-6.52-2.244h-9.227v23.512h6.128v-7.303h2.529l5.308 7.303zm-7.837-12.646v-5.522h3.135c.855 0 1.532.25 2.03.748.523.499.784 1.164.784 1.995 0 .831-.261 1.508-.784 2.03-.498.5-1.175.749-2.03.749h-3.135zM188.6 39.234h7.268l-9.405-12.326 8.086-11.186h-7.124l-7.767 10.652V15.722h-6.127v23.512h6.127v-11.72l8.942 11.72zm23.31-1.959l.855 1.96h6.59l-10.687-23.94h-1.959l-10.688 23.94h6.591l.855-1.96h8.443zm-4.204-10.367l2.031 5.45h-4.097l2.066-5.45z" fill="#fff"/><path d="M.096 0H128.55v4.893H.096V0zm90.529 49.874h128.454v4.893H90.625z" fill="#F20000"/></svg>