<svg width="18" height="25" fill="none" xmlns="http://www.w3.org/2000/svg"><g clip-path="url(#clip0_434_1905)"><path d="M14.275 8.333v.35h1.475c1.026 0 1.9.896 1.9 2.031V22.62c0 1.135-.874 2.031-1.9 2.031H2.25c-1.026 0-1.9-.896-1.9-2.031V10.714c0-1.135.874-2.03 1.9-2.03h1.475V5.951C3.725 2.841 6.107.35 9 .35c2.893 0 5.275 2.491 5.275 5.602v2.381zM12 8.683h.35v-2.73c0-1.052-.301-2.027-.876-2.746-.581-.726-1.43-1.176-2.474-1.176a3.07 3.07 0 00-2.476 1.202C5.951 3.963 5.65 4.95 5.65 6v2.683H12zm3.325 14.011h.35V10.65H2.337v12.044h12.988zM10.9 16.667c0 1.135-.874 2.03-1.9 2.03-1.026 0-1.9-.895-1.9-2.03 0-1.136.874-2.031 1.9-2.031 1.026 0 1.9.896 1.9 2.03z" stroke="#F20000" stroke-width=".7"/></g><defs><clipPath id="clip0_434_1905"><path fill="#fff" d="M0 0h18v25H0z"/></clipPath></defs></svg>