<svg width="24" height="25" fill="none" xmlns="http://www.w3.org/2000/svg"><path d="M2.362 22.957h0l.002-.001h0c.026-.021 1.889-1.57 4.793-1.57 2.34 0 3.739.995 4.417 1.477l.001.001h0l.353.248s0 0 0 0c.727.527 2.248 1.627 4.915 1.627 3.252 0 5.284-1.705 5.377-1.786h0a.45.45 0 00-.585-.685h0v.001h-.001l-.006.005-.017.014-.065.05a5.244 5.244 0 01-.255.18 7.561 7.561 0 01-.964.54 8.197 8.197 0 01-3.484.78c-2.377 0-3.732-.98-4.388-1.454h0l-.358-.255-.004-.002c-.69-.49-2.311-1.642-4.936-1.642-3.255 0-5.285 1.708-5.376 1.786h0l-.003.002a.45.45 0 00.584.684zm0-4h0l.002-.001h0c.026-.021 1.889-1.57 4.793-1.57 2.34 0 3.739.995 4.417 1.477l.001.001h0l.353.248s0 0 0 0c.727.527 2.248 1.627 4.915 1.627 3.252 0 5.284-1.705 5.377-1.786h0a.45.45 0 00-.585-.685h0v.001h-.001l-.006.005-.017.014-.065.05a5.244 5.244 0 01-.255.18 7.561 7.561 0 01-.964.54 8.197 8.197 0 01-3.484.78c-2.377 0-3.732-.98-4.388-1.454h0l-.358-.255-.004-.002c-.69-.49-2.311-1.642-4.936-1.642-3.255 0-5.285 1.708-5.376 1.786h0l-.003.002a.45.45 0 00.584.684zm0-4h0l.002-.001h0c.026-.021 1.889-1.57 4.793-1.57 2.34 0 3.739.995 4.417 1.477l.001.001h0l.353.248s0 0 0 0c.727.527 2.248 1.627 4.915 1.627 3.252 0 5.284-1.705 5.377-1.786h0a.45.45 0 00-.585-.685h0v.001h-.001l-.006.005-.017.014-.065.05a5.244 5.244 0 01-.255.18 7.561 7.561 0 01-.964.54 8.197 8.197 0 01-3.484.78c-2.377 0-3.732-.98-4.388-1.454h0l-.358-.255-.004-.002c-.69-.49-2.311-1.642-4.936-1.642-3.255 0-5.285 1.708-5.376 1.786h0l-.003.002a.45.45 0 00.584.684zm0-4h0l.002-.001h0c.026-.021 1.889-1.57 4.793-1.57 2.34 0 3.739.995 4.417 1.477l.001.001h0l.353.248s0 0 0 0c.727.527 2.248 1.627 4.915 1.627 3.252 0 5.284-1.705 5.377-1.786h0a.45.45 0 00-.585-.685h0v.001h-.001l-.006.005-.017.014-.065.05a5.244 5.244 0 01-.255.18 7.561 7.561 0 01-.964.54 8.197 8.197 0 01-3.484.78c-2.377 0-3.732-.98-4.388-1.454h0l-.358-.255-.004-.002c-.69-.49-2.311-1.642-4.936-1.642-3.255 0-5.285 1.708-5.376 1.786h0l-.003.002a.45.45 0 00.584.684zm0-4h0l.002-.001h0c.026-.021 1.889-1.57 4.793-1.57 2.34 0 3.739.995 4.417 1.477l.001.001h0l.353.248s0 0 0 0c.727.527 2.248 1.627 4.915 1.627 3.252 0 5.284-1.705 5.377-1.786h0a.45.45 0 00-.585-.685h0v.001h-.001l-.006.005-.017.014a5.257 5.257 0 01-.32.23 7.568 7.568 0 01-.964.54 8.197 8.197 0 01-3.484.78c-2.377 0-3.732-.98-4.388-1.454h0l-.358-.254-.004-.003c-.69-.49-2.311-1.642-4.936-1.642-3.255 0-5.285 1.708-5.376 1.786h0l-.003.002a.45.45 0 00.584.684zm0-4h0l.002-.001h0c.026-.021 1.889-1.57 4.793-1.57 2.34 0 3.739.995 4.417 1.477l.001.001h0l.353.248s0 0 0 0c.727.527 2.248 1.627 4.915 1.627 3.252 0 5.284-1.705 5.377-1.786h0a.45.45 0 00-.585-.685h0v.001h-.001l-.006.005-.017.014a5.257 5.257 0 01-.32.23 7.568 7.568 0 01-.964.54 8.197 8.197 0 01-3.484.78c-2.377 0-3.732-.98-4.388-1.454h0l-.358-.254-.004-.003c-.69-.49-2.311-1.642-4.936-1.642-3.255 0-5.285 1.708-5.376 1.786h0l-.003.002a.45.45 0 00.584.684z" fill="#F20000" stroke="#F20000" stroke-width=".2"/></svg>