<svg width="30" height="25" fill="none" xmlns="http://www.w3.org/2000/svg"><path d="M.3 2A1.7 1.7 0 012 .3h13.95v24.4H.3V2z" stroke="#F20000" stroke-width=".6"/><path d="M3.35 3.5A.65.65 0 014 2.85h9.45a.65.65 0 01.65.65v18a.65.65 0 01-.65.65H4a.65.65 0 01-.65-.65v-18zM29.65 2A1.65 1.65 0 0028 .35H14.1v24.3h15.55V2z" stroke="#F20000" stroke-width=".7"/><path d="M26.65 3.5a.65.65 0 00-.65-.65h-9.319a.65.65 0 00-.65.65v18c0 .359.291.65.65.65H26a.65.65 0 00.65-.65v-18z" stroke="#F20000" stroke-width=".7"/><path d="M22 14.233h-.35v2.422L17.495 12.5l4.155-4.155v2.422h5v3.466H22zm-14 0h.35v2.422l4.155-4.155L8.35 8.345v2.422h-5v3.466H8z" stroke="#F20000" stroke-width=".7"/></svg>