<svg width="25" height="27" fill="none" xmlns="http://www.w3.org/2000/svg"><path d="M.35 4.77a.15.15 0 01.15-.15h7.99a.15.15 0 01.15.15v7.076a.15.15 0 01-.15.15H.5a.15.15 0 01-.15-.15V4.77z" stroke="#F20000" stroke-width=".7"/><path d="M2.273 6.308a.15.15 0 01.15-.15H6.23a.15.15 0 01.15.15v3.807a.15.15 0 01-.15.15H2.423a.15.15 0 01-.15-.15V6.308zm14.089 8.846a.15.15 0 01.15-.15H24.5a.15.15 0 01.15.15v7.077a.15.15 0 01-.15.15h-7.988a.15.15 0 01-.15-.15v-7.077z" stroke="#F20000" stroke-width=".7"/><path d="M18.62 16.885a.15.15 0 01.15-.15h3.807a.15.15 0 01.15.15v3.807a.15.15 0 01-.15.15H18.77a.15.15 0 01-.15-.15v-3.807zM11.84 3.054a.65.65 0 00-.65.65v19.592c0 .36.29.65.65.65h1.322a.65.65 0 00.65-.65V3.704a.65.65 0 00-.65-.65H11.84z" stroke="#F20000" stroke-width=".7"/><rect x="8.654" y="1" width="7.692" height="25" rx="1" stroke="#F20000" stroke-width=".7"/></svg>