<svg width="26" height="26" fill="none" xmlns="http://www.w3.org/2000/svg"><path d="M1 6.538v8.308l12-2.307 12 2.307V6.538L13 1 1 6.538z" stroke="#F20000" stroke-width=".7"/><path d="M1 6.577v8.308l12-2.308 12 2.308V6.577L13 1.039 1 6.577z" stroke="#F20000" stroke-width=".7"/><path d="M4 7.365V12l9-2 9 2V7.365L13 4 4 7.365zm8.806 17.546a.35.35 0 00.388 0l4.065-2.71c.334-.222.091-.74-.293-.626l-3.668 1.086a1.051 1.051 0 01-.596 0l-3.667-1.086c-.385-.114-.628.404-.294.626l4.065 2.71zm0-4.615a.35.35 0 00.388 0l4.065-2.71c.334-.223.091-.74-.293-.627l-3.668 1.087a1.05 1.05 0 01-.596 0l-3.667-1.087c-.385-.114-.628.404-.294.627l4.065 2.71z" stroke="#F20000" stroke-width=".7"/></svg>