<svg width="24" height="25" fill="none" xmlns="http://www.w3.org/2000/svg"><g clip-path="url(#clip0_434_1947)"><path d="M15.2 7.933h6.4a.805.805 0 00.566-.232.786.786 0 00.234-.558V1.19a.786.786 0 00-.234-.557A.805.805 0 0021.6.4H7.893L1.441 3.601h0A.796.796 0 001 4.307l14.2 3.626zm0 0v.4m0-.4v.4m0 0V23.81c0 .21-.084.41-.234.558a.804.804 0 01-.566.233H9.6a.805.805 0 01-.567-.233.786.786 0 01-.233-.558V7.933m6.4.4l-6.4-.4m0 0h-.4m.4 0h-.4m0 0H1.8a.805.805 0 01-.567-.232l-.282.284M8.4 7.933l-7.45.052m0 0l.282-.284A.786.786 0 011 7.143m-.049.842L1 7.143m0 0V4.307v2.836zM16 2.38v-.4H8.272l-.084.042-5.366 2.662-.222.11v1.559h7.8v16.665h3.2V6.352H16V2.381zm4.8 0v-.4h-3.2v4.371h3.2v-3.97z" fill="#F20000" stroke="#FAFAFA" stroke-width=".8"/><path d="M12 22V7" stroke="#F20000" stroke-width=".7"/></g><defs><clipPath id="clip0_434_1947"><path fill="#fff" d="M0 0h24v25H0z"/></clipPath></defs></svg>