<svg width="13" height="27" fill="none" xmlns="http://www.w3.org/2000/svg"><path d="M11.519 8.578h0l-.003-.004L9.383 5.64a.869.869 0 00-.06-.098c.082-.192.11-.39.11-.6v-2.8C9.434 1.33 8.77.65 7.959.65H4.94c-.812 0-1.476.68-1.476 1.491v2.8c0 .246.069.455.144.626a1.075 1.075 0 00-.043.075l-2.08 2.931C.922 9.317.65 10.275.65 11.218v13.59c0 .862.664 1.542 1.527 1.542h8.646c.812 0 1.527-.732 1.527-1.543v-13.59c0-.951-.277-1.852-.831-2.639z" stroke="#F20000" stroke-width=".7"/><path d="M9.77 11.947v11.787H3.146V11.947c0-.529.148-1.012.405-1.413l1.712-2.606c.065-.093.127-.12.212-.12h1.968c.085 0 .147.027.212.12l1.713 2.606c.256.401.404.884.404 1.413z" stroke="#F20000" stroke-width=".7"/><path stroke="#F20000" stroke-width=".5" d="M5.25 2.25h2.5v2.5h-2.5z"/></svg>