<svg width="22" height="27" fill="none" xmlns="http://www.w3.org/2000/svg"><path d="M11.227.734L11 .54l-.227.194c-3.345 2.855-5.87 5.528-7.561 8.021C1.522 11.247.65 13.581.65 15.75c0 6.429 4.918 10.6 10.35 10.6 5.432 0 10.35-4.171 10.35-10.6 0-2.17-.872-4.503-2.562-6.995-1.69-2.493-4.216-5.166-7.56-8.021zM7.057 16.71h0v-.003a1.288 1.288 0 00-1.27-1.058c-.786 0-1.408.716-1.27 1.499l.002.003c.75 3.992 4.047 5.605 6.85 5.435A1.296 1.296 0 0012.6 21.3c0-.74-.62-1.321-1.354-1.287h0-.012c-1.567.127-3.705-.745-4.177-3.302zM11 23.15c-3.99 0-7.15-3.051-7.15-7.4 0-1.368.572-3.002 1.795-4.884C6.827 9.046 8.602 7.016 11 4.8c2.398 2.216 4.173 4.242 5.355 6.061 1.223 1.881 1.795 3.514 1.795 4.889 0 4.349-3.16 7.4-7.15 7.4z" stroke="#F20000" stroke-width=".7"/></svg>