<svg width="20" height="18" fill="none" xmlns="http://www.w3.org/2000/svg"><g clip-path="url(#clip0_528_24430)"><path d="M2.631 9.15h.15V9c0-4.522 3.646-8.188 8.14-8.188 4.494 0 8.14 3.666 8.14 8.188 0 4.523-3.646 8.188-8.14 8.188a8.07 8.07 0 01-5.646-2.296l1.097-1.103a6.524 6.524 0 004.549 1.846c3.648 0 6.597-2.967 6.597-6.635 0-3.667-2.95-6.635-6.597-6.635-3.648 0-6.598 2.968-6.598 6.635v.15h2.552l-3.327 3.34-3.32-3.34h2.403zm8.6-.01v.084l.073.044 3.114 1.86-.556.928L10.15 9.84V5.444h1.081V9.14z" fill="#333" stroke="#F5F5F5" stroke-width=".3"/></g><defs><clipPath id="clip0_528_24430"><path fill="#fff" d="M0 0h20v18H0z"/></clipPath></defs></svg>