<svg width="27" height="22" fill="none" xmlns="http://www.w3.org/2000/svg"><path d="M27 9.534a1.866 1.866 0 00-1.865-1.865h-1.617a1.576 1.576 0 00-.136-.257l-3.683-5.733c-.265-.41-.675-.7-1.15-.804a1.831 1.831 0 00-1.93 2.782l2.574 4.004H7.815l2.573-4.004a1.8 1.8 0 00.29-.99 1.82 1.82 0 00-.844-1.543A1.828 1.828 0 008.45.874a1.812 1.812 0 00-1.15.805L3.618 7.412c-.056.08-.096.169-.136.257H1.865A1.867 1.867 0 000 9.534v.121c0 1.03.836 1.866 1.865 1.866h.177l3.064 9.994c.08.257.313.426.579.426h15.614a.613.613 0 00.58-.426l3.063-9.995h.177a1.866 1.866 0 001.865-1.865v-.12H27zm-9.375-6.52a.634.634 0 01.185-.869.654.654 0 01.474-.088c.16.032.306.128.394.273l3.425 5.331h-1.487l-2.991-4.647zM8.322 2.33a.624.624 0 01.868-.185.632.632 0 01.193.869l-2.99 4.655H4.904L8.322 2.33zm12.543 18.405H6.135l-2.83-9.214h20.382l-2.822 9.214zm4.929-11.08c0 .362-.298.66-.66.66H1.874a.662.662 0 01-.659-.66v-.12c0-.362.298-.66.66-.66H25.12c.361 0 .659.298.659.66v.12h.016z" fill="#F20000"/><path d="M9.713 18.37c.33 0 .603-.273.603-.602v-3.28a.607.607 0 00-.603-.604.607.607 0 00-.603.603v3.28c0 .338.273.604.603.604zm3.787 0c.33 0 .603-.273.603-.602v-3.28a.607.607 0 00-.603-.604.607.607 0 00-.603.603v3.28c0 .338.273.604.603.604zm3.787 0c.33 0 .603-.273.603-.602v-3.28a.607.607 0 00-.603-.604.607.607 0 00-.603.603v3.28c0 .338.265.604.603.604z" fill="#F20000"/></svg>