<svg width="24" height="24" fill="none" xmlns="http://www.w3.org/2000/svg"><path d="M18.72 6.72a1.44 1.44 0 100-2.88 1.44 1.44 0 000 2.88z" stroke="#F20000" stroke-width="1.176" stroke-miterlimit="10" stroke-linecap="round"/><path d="M22.56 2.64a1.2 1.2 0 00-1.2-1.2h-7.14c-.639 0-1.25-.033-1.604.322L1.706 12.67a.907.907 0 000 1.284l8.34 8.339a.908.908 0 001.283 0l10.91-10.91c.354-.354.32-.95.32-1.603l.001-7.141z" stroke="#F20000" stroke-width="1.176" stroke-miterlimit="10" stroke-linecap="round"/><path d="M15.358 11.988c-.005-.732-.2-1.29-.584-1.673-.395-.395-.89-.552-1.484-.474-.474.063-.973.269-1.5.616l2.234 2.233-.694.268-2.076-2.075a1.364 1.364 0 00-.133.119l-.119.118-.087.087a.516.516 0 00-.07.087l1.964 1.965-.686.276-1.721-1.72c-.958 1.305-1.023 2.37-.197 3.196.252.252.526.427.82.52.216.07.537.11.963.127l-.829.829c-.578-.126-1.096-.418-1.554-.876-1.29-1.289-1.279-2.81.031-4.562l-.607-.607.694-.27.363.364a.561.561 0 01.07-.087l.08-.079.134-.134c.042-.042.084-.078.127-.11L9.92 9.55l.687-.276.426.426c.774-.52 1.523-.791 2.25-.813.82-.03 1.541.264 2.162.884.479.48.79 1.121.931 1.926l-1.018.29z" fill="#F20000"/></svg>