<svg width="19" height="27" fill="none" xmlns="http://www.w3.org/2000/svg"><path d="M16.237 20.06l-4.017-2.002v-.602c1.109-.862 2.322-2.433 3.348-5.232a1.644 1.644 0 001.318-.732 2.01 2.01 0 00.188-1.938 1.533 1.533 0 00-.942-.84C16.028 3.72 13.56.748 9.5.748s-6.507 2.95-6.633 7.945v.021c-.418.13-.753.43-.941.84a2.01 2.01 0 00.188 1.938c.314.452.774.689 1.318.732 1.025 2.799 2.239 4.37 3.348 5.231v.603L2.763 20.04a2.61 2.61 0 00-1.423 2.325v3.833h16.32v-3.811a2.61 2.61 0 00-1.423-2.325zm.084-10.162c.146.323.104.776-.105 1.077a.745.745 0 01-.335.28c.126-.517.21-1.12.252-1.636.062.086.125.172.188.28zM9.5 1.61c3.598 0 5.711 2.605 5.795 7.148-2.427.56-4.498-.538-6.318-1.507-1.528-.818-2.846-1.528-4.08-1.055-.377.15-.712.388-1.026.754.544-3.424 2.532-5.34 5.629-5.34zm-6.717 9.366a1.162 1.162 0 01-.105-1.077.629.629 0 01.21-.258 9.03 9.03 0 00.272 1.636.774.774 0 01-.377-.301zm1.339.667c-.21-.775-.418-1.572-.418-2.583v-.194c.439-1.034.92-1.658 1.485-1.873.879-.345 2.05.28 3.41 1.012 1.507.796 3.285 1.765 5.357 1.765.418 0 .857-.043 1.318-.13-.063.647-.189 1.465-.377 2.003-1.883 5.404-4.394 5.985-5.398 5.985-.984 0-3.494-.581-5.377-5.985zM9.5 18.488c.44 0 1.11-.086 1.883-.495v.474l-1.38 1.356-.022.022a.657.657 0 01-.962 0l-1.402-1.378v-.474c.774.41 1.444.495 1.883.495zm-4.603 6.847v-.646H4.06v.646H2.177v-2.95c0-.667.377-1.27.942-1.55l3.766-1.873 1.506 1.486c.063.086.147.15.23.193l-.543 4.694h-3.18zm4.038 0l.523-4.414h.084l.523 4.414h-1.13zm7.888 0H14.94v-.646h-.837v.646h-3.18l-.565-4.694c.084-.064.168-.129.23-.193l1.507-1.486 3.766 1.873c.586.28.941.904.941 1.55v2.95h.021z" fill="#F20000"/></svg>