<svg width="22" height="23" fill="none" xmlns="http://www.w3.org/2000/svg"><g clip-path="url(#clip0_465_11369)" fill="#F20000"><path d="M3.26 10.071l.095.03a.998.998 0 01.853-.693l.09-.008v-.001l4.04-.402.059-.006.023-.054 1.667-3.822h0a.996.996 0 01.912-.6c.395 0 .753.235.911.6h0l1.668 3.836.023.054.058.006 4.13.41s0 0 0 0a1 1 0 01.844.688h0c.122.378.011.792-.282 1.057 0 0 0 0 0 0l-3.102 2.74-.044.038.013.057.884 4.11v.001c.082.388-.07.788-.388 1.02a.99.99 0 01-1.062.07l-.02-.012-3.579-2.11-.05-.03-.052.03-3.578 2.11s0 0 0 0a.99.99 0 01-1.082-.057 1.008 1.008 0 01-.389-1.02h0l.885-4.111.012-.057-.044-.04-3.102-2.74h0a1.008 1.008 0 01-.298-1.064l-.095-.03zm0 0c.133-.42.503-.72.939-.762l-.612 1.931a1.108 1.108 0 01-.327-1.169zm11.22 2.988l2.637-2.367.168-.152-.225-.022-3.672-.37s0 0 0 0a.998.998 0 01-.81-.623h0l-.001-.003-1.483-3.425-.092-.212-.092.212-1.483 3.425h0v.003a.998.998 0 01-.81.623l-3.68.37-.225.022.168.152 2.762 2.48s0 0 0 0c.267.24.386.606.31.959 0 0 0 0 0 0l-.79 3.63-.048.224.197-.116 3.19-1.884s0 0 0 0a.988.988 0 011.002 0l3.19 1.877.197.116-.048-.223-.79-3.63s0 0 0 0a1.007 1.007 0 01.31-.96l.118-.106z" stroke="#FAFAFA" stroke-width=".2"/><path d="M5.214 2.62a10.834 10.834 0 019.799-.905h0l.004.002a.589.589 0 01.032 1.095.576.576 0 01-.455-.007h0l-.004-.001a9.669 9.669 0 00-8.744.807h0a9.805 9.805 0 00-4.535 7.571h0a9.827 9.827 0 003.37 8.164 9.677 9.677 0 008.529 2.104 9.744 9.744 0 006.737-5.67 9.854 9.854 0 00-.544-8.823h0a.588.588 0 01.202-.803h0a.576.576 0 01.8.217h0l.001.001a11.045 11.045 0 01.608 9.891 10.922 10.922 0 01-7.552 6.354 10.847 10.847 0 01-9.557-2.361A11.015 11.015 0 01.13 11.104 10.991 10.991 0 015.214 2.62zm0 0l-.053-.085m.053.084l-.053-.084m0 0a10.934 10.934 0 019.89-.912l-9.89.912z" stroke="#FAFAFA" stroke-width=".2"/><path d="M17.881 5.123c.263.27.694.275.963.01a.69.69 0 00.01-.97 11.228 11.228 0 00-1.667-1.37.676.676 0 00-1.066.078.689.689 0 00.325 1.026c.516.361.997.772 1.435 1.226z"/></g><defs><clipPath id="clip0_465_11369"><path fill="#fff" d="M0 0h22v23H0z"/></clipPath></defs></svg>