<svg width="19" height="19" viewBox="0 0 19 19" fill="none" xmlns="http://www.w3.org/2000/svg">
<g clip-path="url(#clip0_434_4090)">
<path d="M9.5 2.375C10.8062 2.375 11.875 3.44375 11.875 4.75C11.875 6.05625 10.8062 7.125 9.5 7.125C8.19375 7.125 7.125 6.05625 7.125 4.75C7.125 3.44375 8.19375 2.375 9.5 2.375ZM9.5 14.25C12.7063 14.25 16.3875 15.7819 16.625 16.625H2.375C2.64812 15.77 6.30562 14.25 9.5 14.25ZM9.5 0C6.87563 0 4.75 2.12562 4.75 4.75C4.75 7.37437 6.87563 9.5 9.5 9.5C12.1244 9.5 14.25 7.37437 14.25 4.75C14.25 2.12562 12.1244 0 9.5 0ZM9.5 11.875C6.32937 11.875 0 13.4662 0 16.625V19H19V16.625C19 13.4662 12.6706 11.875 9.5 11.875Z" fill="#BCBCBC"/>
</g>
<defs>
<clipPath id="clip0_434_4090">
<rect width="19" height="19" fill="white"/>
</clipPath>
</defs>
</svg>
