<svg width="33" height="33" viewBox="0 0 33 33" fill="none" xmlns="http://www.w3.org/2000/svg">
<path d="M7.0127 2.35693H25.9877V30.6429H7.0127V2.35693Z" fill="white"/>
<path d="M25.5751 2.76934V30.2303H7.4251V2.76934H25.5751ZM26.4001 1.94434H6.6001V31.0553H26.4001V1.94434Z" fill="#F20000"/>
<path d="M6.6001 3.2998H26.4001V29.6998H6.6001V3.2998Z" fill="white"/>
<path d="M23.5127 28.5295V4.47081L31.7627 1.41748V31.5828L23.5127 28.5295Z" fill="white"/>
<path d="M31.3501 2.0099V30.9897L23.9251 28.2416V4.7588L31.3501 2.0099ZM32.1751 0.825195L23.1001 4.18377V28.8158L32.1751 32.1752V0.825195Z" fill="#F20000"/>
<path d="M28.8752 5.56541V12.375H26.4002V6.48116L28.8752 5.56541ZM29.7002 4.37988L25.5752 5.90696V13.2H29.7002V4.37988Z" fill="#F20000"/>
<path d="M28.8752 15.6751V27.4346L26.4002 26.5189V15.6751H28.8752ZM29.7002 14.8501H25.5752V27.0931L29.7002 28.6202V14.8501Z" fill="#F20000"/>
<path d="M1.23779 1.41748L9.48779 4.47081V28.5295L1.23779 31.5828V1.41748Z" fill="white"/>
<path d="M1.6502 2.0099L9.0752 4.75797V28.2416L1.6502 30.9897V2.0099ZM0.825195 0.825195V32.1752L9.9002 28.8166V4.18377L0.825195 0.825195Z" fill="#F20000"/>
<path d="M4.1248 5.56541L6.5998 6.48116V12.375H4.1248V5.56541ZM3.2998 4.37988V13.2H7.4248V5.90696L3.2998 4.37988Z" fill="#F20000"/>
<path d="M6.5998 15.6751V26.5189L4.1248 27.4346V15.6751H6.5998ZM7.4248 14.8501H3.2998V28.6202L7.4248 27.0931V14.8501Z" fill="#F20000"/>
</svg>
