<svg width="31" height="31" viewBox="0 0 31 31" fill="none" xmlns="http://www.w3.org/2000/svg">
<g clip-path="url(#clip0_465_11007)">
<path fill-rule="evenodd" clip-rule="evenodd" d="M2.65879 0.0605469C11.2399 0.0605469 19.8211 0.0605469 28.4023 0.0605469C28.3923 0.169724 28.3737 0.2789 28.3737 0.388192C28.3724 9.88426 28.3724 19.3803 28.3724 28.8765C28.3724 28.9926 28.3724 29.1087 28.3724 29.2584C28.8141 29.2584 29.2114 29.2584 29.6037 29.2584C29.6037 29.8529 29.6037 30.4129 29.6037 30.976C20.2085 30.976 10.8307 30.976 1.4585 30.976C1.4585 30.3921 1.4585 29.8322 1.4585 29.2399C1.87389 29.2399 2.27153 29.2399 2.68854 29.2399C2.68854 29.0867 2.68854 28.9665 2.68854 28.8463C2.68854 19.3703 2.68865 9.8944 2.68727 0.418397C2.68738 0.299191 2.66871 0.179869 2.65879 0.0605469ZM3.34812 29.2278C7.30353 29.2278 11.2443 29.2278 15.1901 29.2278C15.1901 19.7173 15.1901 10.2265 15.1901 0.728058C11.2338 0.728058 7.29984 0.728058 3.34812 0.728058C3.34812 10.235 3.34812 19.7257 3.34812 29.2278ZM15.8721 0.726213C15.8721 10.2518 15.8721 19.7414 15.8721 29.2303C17.5338 29.2303 19.1721 29.2303 20.8282 29.2303C20.748 28.6266 20.6703 28.0423 20.5889 27.4294C19.4897 27.4294 18.4175 27.4294 17.3442 27.4294C17.3442 19.1138 17.3442 10.8309 17.3442 2.54152C20.4356 2.54152 23.508 2.54152 26.578 2.54152C26.578 10.8508 26.578 19.133 26.578 27.4392C25.8872 27.4392 25.2157 27.4392 24.5185 27.4392C24.4383 28.0437 24.3608 28.6279 24.2812 29.229C25.4402 29.229 26.5719 29.229 27.7114 29.229C27.7114 19.7206 27.7114 10.2306 27.7114 0.726098C23.7583 0.726213 19.8244 0.726213 15.8721 0.726213ZM25.9453 5.21422C25.8498 5.30229 25.8052 5.34068 25.7636 5.3823C23.2137 7.93141 20.6624 10.4791 18.1201 13.0357C18.0234 13.133 17.9688 13.3155 17.9681 13.4585C17.9586 15.6539 17.9615 17.8494 17.9615 20.0448C17.9615 20.1299 17.9615 20.2151 17.9615 20.3583C18.0704 20.2632 18.1314 20.2159 18.1855 20.1617C20.7213 17.6271 23.2583 15.0936 25.7858 12.5508C25.8895 12.4465 25.9533 12.2548 25.9539 12.1033C25.9646 9.92795 25.9614 7.7526 25.9607 5.57737C25.9609 5.47961 25.9528 5.38173 25.9453 5.21422ZM17.9615 26.7712C18.833 26.7712 19.6531 26.7712 20.4996 26.7712C20.4029 26.0048 20.3092 25.2626 20.2099 24.4761C20.9245 24.4761 21.5921 24.4761 22.2819 24.4761C22.2819 23.9649 22.2892 23.4932 22.274 23.0222C22.2717 22.9534 22.1754 22.8611 22.1007 22.8253C21.5516 22.5627 21.2897 22.1245 21.2825 21.5258C21.278 21.1635 21.2814 20.801 21.2814 20.4387C21.2814 20.0615 21.2814 19.6844 21.2814 19.2341C21.7603 19.6324 22.1803 19.9817 22.601 20.3315C23.0423 19.9651 23.4545 19.6225 23.9084 19.2453C23.9084 20.1186 23.929 20.9215 23.9007 21.7226C23.884 22.1969 23.6268 22.576 23.189 22.7661C22.9093 22.8876 22.8825 23.05 22.9462 23.3143C23.0611 23.2608 23.1577 23.2158 23.2796 23.159C23.3812 23.344 23.476 23.5167 23.5661 23.6809C23.3653 23.9586 22.7728 23.9015 22.9575 24.488C23.5976 24.488 24.2378 24.488 24.9042 24.488C24.8032 25.2652 24.7066 26.0087 24.608 26.767C25.0671 26.767 25.5012 26.767 25.9373 26.767C25.9373 22.2891 25.9373 17.8374 25.9373 13.3476C25.86 13.4148 25.8127 13.4509 25.7711 13.4926C23.2151 16.0474 20.6582 18.6013 18.1093 21.1632C18.0187 21.2544 17.9686 21.4257 17.9678 21.56C17.9583 23.1908 17.9616 24.8215 17.9616 26.4522C17.9615 26.5508 17.9615 26.6493 17.9615 26.7712ZM17.9802 9.41423C20.0569 7.33653 22.1454 5.24684 24.215 3.17629C22.1717 3.17629 20.0792 3.17629 17.9802 3.17629C17.9802 5.28558 17.9802 7.37112 17.9802 9.41423ZM25.9583 3.14954C25.6481 3.19485 25.3681 3.05224 25.1113 3.31037C22.7832 5.64977 20.4464 7.98052 18.1139 10.3157C18.0528 10.3768 17.9719 10.4584 17.9703 10.5321C17.9582 11.0799 17.9637 11.6281 17.9637 12.2257C18.0497 12.1612 18.0912 12.1372 18.1241 12.1044C20.6939 9.53701 23.2632 6.96911 25.8305 4.39937C25.8847 4.34518 25.9501 4.26979 25.9527 4.20223C25.9651 3.86317 25.9583 3.52342 25.9583 3.14954ZM2.09098 30.3248C11.0671 30.3248 20.0139 30.3248 28.9644 30.3248C28.9644 30.1747 28.9644 30.0495 28.9644 29.9226C19.9967 29.9226 11.0501 29.9226 2.09098 29.9226C2.09098 30.0641 2.09098 30.1815 2.09098 30.3248ZM24.1662 25.153C23.0842 25.153 22.0316 25.153 20.9427 25.153C21.1206 26.5027 21.2959 27.8327 21.4728 29.1732C22.2042 29.1732 22.9126 29.1732 23.6359 29.1732C23.8128 27.8328 23.9875 26.5082 24.1662 25.153ZM21.9344 20.6311C21.9344 20.9776 21.9343 21.2492 21.9347 21.521C21.9347 21.5612 21.935 21.6018 21.9397 21.6416C21.9803 21.9885 22.2079 22.2246 22.5354 22.2609C22.8479 22.2956 23.1674 22.1138 23.218 21.799C23.2766 21.4336 23.2617 21.0562 23.2818 20.6149C23.0081 20.8378 22.8078 21.001 22.602 21.1684C22.3843 20.9932 22.1843 20.8321 21.9344 20.6311Z" fill="#F20000"/>
<path fill-rule="evenodd" clip-rule="evenodd" d="M13.7175 27.4239C10.6276 27.4239 7.5614 27.4239 4.47852 27.4239C4.47852 19.1276 4.47852 10.8462 4.47852 2.53955C7.5546 2.53955 10.6269 2.53955 13.7175 2.53955C13.7175 10.831 13.7175 19.1129 13.7175 27.4239ZM5.11296 26.7707C7.7846 26.7707 10.4265 26.7707 13.0749 26.7707C13.0749 22.2587 13.0749 17.7689 13.0749 13.2393C12.9967 13.3078 12.9499 13.3442 12.9083 13.3859C10.3593 15.934 7.80905 18.4811 5.26757 21.0366C5.16946 21.1352 5.10766 21.3153 5.10674 21.4579C5.09578 23.1291 5.09959 24.8003 5.10028 26.4715C5.10028 26.5608 5.10766 26.6502 5.11296 26.7707ZM13.0996 5.08901C12.9939 5.18423 12.9556 5.21559 12.9208 5.25041C10.3636 7.80655 7.80501 10.3613 5.25546 12.9252C5.15873 13.0225 5.10674 13.2067 5.10616 13.3507C5.09694 15.5362 5.09959 17.7216 5.1004 19.9072C5.1004 20.0027 5.10962 20.0983 5.11677 20.2376C5.20692 20.1584 5.26134 20.1158 5.30988 20.0673C7.85274 17.5253 10.3966 14.9844 12.932 12.435C13.0299 12.3365 13.092 12.1569 13.0927 12.0148C13.1026 9.81934 13.0998 7.6237 13.0998 5.42806C13.0996 5.3416 13.0996 5.25513 13.0996 5.08901ZM5.11619 9.30124C7.16365 7.25398 9.21514 5.20256 11.2443 3.17351C9.242 3.17351 7.18693 3.17351 5.11619 3.17351C5.11619 5.24303 5.11619 7.29145 5.11619 9.30124ZM13.0986 3.19207C12.566 3.06722 12.2122 3.21698 11.8537 3.58244C9.84393 5.63155 7.82011 7.66728 5.76297 9.66843C5.26814 10.1498 4.99029 10.6255 5.09371 11.3154C5.1306 11.5616 5.09959 11.8178 5.09959 12.1171C5.18767 12.0542 5.21453 12.0401 5.23506 12.0196C7.81377 9.4427 10.3923 6.86558 12.9681 4.28592C13.0274 4.22666 13.0886 4.13823 13.0926 4.06053C13.1074 3.77174 13.0986 3.48156 13.0986 3.19207Z" fill="#F20000"/>
<path fill-rule="evenodd" clip-rule="evenodd" d="M14.1543 16.3794C14.3743 16.3794 14.5623 16.3794 14.7687 16.3794C14.7687 17.2715 14.7687 18.1484 14.7687 19.0453C14.5591 19.0453 14.3641 19.0453 14.1543 19.0453C14.1543 18.155 14.1543 17.2774 14.1543 16.3794Z" fill="#F20000"/>
<path fill-rule="evenodd" clip-rule="evenodd" d="M16.2925 16.3799C16.4986 16.3799 16.6864 16.3799 16.8982 16.3799C16.8982 17.2625 16.8982 18.1476 16.8982 19.0457C16.6975 19.0457 16.5025 19.0457 16.2925 19.0457C16.2925 18.1488 16.2925 17.2721 16.2925 16.3799Z" fill="#F20000"/>
</g>
<defs>
<clipPath id="clip0_465_11007">
<rect width="30.9999" height="30.9999" fill="white"/>
</clipPath>
</defs>
</svg>
