<svg width="4" height="6" viewBox="0 0 4 6" fill="none" xmlns="http://www.w3.org/2000/svg">
<mask id="path-1-inside-1_465_8355" fill="white">
<path d="M4 3.00007L3.72131 2.74662L0.748391 -3.27132e-08L-2.40116e-07 0.506793L2.69931 3L-2.21526e-08 5.49321L0.748392 6L3.72131 3.25338L4 2.99993L4 3.00007Z"/>
</mask>
<path d="M4 3.00007L3.72131 2.74662L0.748391 -3.27132e-08L-2.40116e-07 0.506793L2.69931 3L-2.21526e-08 5.49321L0.748392 6L3.72131 3.25338L4 2.99993L4 3.00007Z" fill="#333333"/>
<path d="M4 3.00007L3.32718 3.73988L5 5.26124L5 3.00007L4 3.00007ZM3.72131 2.74662L3.04269 3.48115L3.04849 3.48642L3.72131 2.74662ZM0.748391 -3.27132e-08L1.42699 -0.73451L0.844415 -1.27274L0.187681 -0.828012L0.748391 -3.27132e-08ZM-2.40116e-07 0.506793L-0.56071 -0.321219L-1.6048 0.385817L-0.678506 1.24139L-2.40116e-07 0.506793ZM2.69931 3L3.37782 3.7346L4.17314 3L3.37782 2.26541L2.69931 3ZM-2.21526e-08 5.49321L-0.678506 4.75861L-1.6048 5.61418L-0.56071 6.32122L-2.21526e-08 5.49321ZM0.748392 6L0.187682 6.82801L0.844416 7.27274L1.42699 6.73451L0.748392 6ZM3.72131 3.25338L3.04847 2.51356L3.04272 2.51887L3.72131 3.25338ZM4 2.99993L5 2.99993L5 0.73876L3.32718 2.26013L4 2.99993ZM4.67282 2.26027L4.39413 2.00681L3.04849 3.48642L3.32718 3.73988L4.67282 2.26027ZM4.39991 2.01211L1.42699 -0.73451L0.0697938 0.73451L3.04272 3.48113L4.39991 2.01211ZM0.187681 -0.828012L-0.56071 -0.321219L0.56071 1.33481L1.3091 0.828012L0.187681 -0.828012ZM-0.678506 1.24139L2.02081 3.7346L3.37782 2.26541L0.678505 -0.227802L-0.678506 1.24139ZM2.02081 2.26541L-0.678506 4.75861L0.678505 6.2278L3.37782 3.7346L2.02081 2.26541ZM-0.56071 6.32122L0.187682 6.82801L1.3091 5.17199L0.56071 4.66519L-0.56071 6.32122ZM1.42699 6.73451L4.39991 3.9879L3.04272 2.51887L0.0697941 5.26549L1.42699 6.73451ZM4.39414 3.99319L4.67282 3.73973L3.32718 2.26013L3.04849 2.51358L4.39414 3.99319ZM3 2.99993L3 3.00007L5 3.00007L5 2.99993L3 2.99993Z" fill="#B5B5B5" mask="url(#path-1-inside-1_465_8355)"/>
</svg>
