<svg width="20" height="21" viewBox="0 0 20 21" fill="none" xmlns="http://www.w3.org/2000/svg">
<g clip-path="url(#clip0_465_11117)">
<path d="M15.4044 10.4199L15.4041 10.4204C15.113 10.9491 14.5471 11.3 13.9022 11.3H6.76266H6.64463L6.58758 11.4033L5.53341 13.3124L5.36959 13.6091H5.7085H17.0085V15.1182H5.7085C4.40449 15.1182 3.58021 13.7259 4.20657 12.5797C4.20668 12.5795 4.20678 12.5793 4.20688 12.5792L5.5 10.2512L5.55003 10.1611L5.50573 10.0681L2.05573 2.8231L2.00144 2.70909H1.87516H0.158496V1.2H2.96547L3.8122 2.99444L3.8663 3.10909H3.99308H18.1764C18.7536 3.10909 19.1145 3.72862 18.8359 4.22372L18.8352 4.22492L15.4044 10.4199ZM4.9035 4.61818H4.58683L4.7229 4.90412L6.99415 9.67685L7.04843 9.79091H7.17475H13.9022H14.0201L14.0772 9.68786L16.7222 4.91513L16.8867 4.61818H16.5472H4.9035ZM4.00141 18.1818C4.00141 17.2417 4.76534 16.4727 5.7085 16.4727C6.65295 16.4727 7.42516 17.243 7.42516 18.1818C7.42516 19.1206 6.65295 19.8909 5.7085 19.8909C4.76534 19.8909 4.00141 19.1219 4.00141 18.1818ZM13.5847 18.1818C13.5847 17.2417 14.3487 16.4727 15.2918 16.4727C16.2363 16.4727 17.0085 17.243 17.0085 18.1818C17.0085 19.1206 16.2363 19.8909 15.2918 19.8909C14.3487 19.8909 13.5847 19.1219 13.5847 18.1818Z" fill="white" stroke="#333333" stroke-width="0.4"/>
</g>
<defs>
<clipPath id="clip0_465_11117">
<rect width="20" height="21" fill="white"/>
</clipPath>
</defs>
</svg>
