<svg width="14" height="13" viewBox="0 0 14 13" fill="none" xmlns="http://www.w3.org/2000/svg">
<path d="M13.4506 0.553859C13.1308 0.231165 12.6972 0.05 12.2452 0.05H1.75476C1.3028 0.05 0.869236 0.231169 0.549406 0.553847L13.4506 0.553859ZM13.4506 0.553859C13.7703 0.876679 13.95 1.3145 13.95 1.77108V8.0152C13.95 8.47191 13.7703 8.90973 13.4506 9.23243C13.1308 9.55512 12.6972 9.7364 12.2452 9.7364H4.01357H3.99344L3.97892 9.75035L0.774108 12.8306L0.808755 12.8666L0.774105 12.8306C0.692649 12.9089 0.584072 12.9518 0.471844 12.9499C0.359485 12.9481 0.252294 12.9018 0.17332 12.8209C0.0943463 12.74 0.05 12.6309 0.05 12.5172V1.77108C0.05 1.3145 0.229666 0.876679 0.549393 0.553859L13.4506 0.553859ZM13.0931 8.01515C13.0931 8.01518 13.0931 8.01522 13.0931 8.01526C13.0931 8.24184 13.0039 8.45921 12.8449 8.61966C12.686 8.78004 12.4704 8.87022 12.2455 8.87022H3.8224C3.71231 8.87032 3.60652 8.91311 3.52675 8.98989L3.52672 8.98992L0.991814 11.426L0.907168 11.5074V11.39V1.77119C0.907168 1.54458 0.996329 1.32717 1.15532 1.1668C1.15533 1.16679 1.15534 1.16678 1.15535 1.16677L1.19085 1.20198L13.0931 8.01515ZM13.0931 8.01515L13.0932 1.77119C13.0932 1.54457 13.004 1.32717 12.845 1.1668L13.0931 8.01515ZM3.89309 5.93864L3.89308 5.93865C3.81642 6.07265 3.81642 6.23796 3.89308 6.37194L3.89309 6.37196C3.96972 6.50601 4.11125 6.58836 4.2642 6.58836H9.96734C10.1202 6.58836 10.2617 6.50601 10.3385 6.37193L3.89309 5.93864ZM3.89309 5.93864C3.96972 5.80459 4.11125 5.72224 4.2642 5.72224H9.96734C10.1202 5.72224 10.2617 5.80458 10.3385 5.93866L3.89309 5.93864ZM6.77674 4.33414H4.2642C4.11123 4.33414 3.96971 4.25187 3.89309 4.11785C3.81642 3.98374 3.81642 3.81853 3.89309 3.68442C3.96972 3.55048 4.11125 3.46813 4.2642 3.46813H6.77674C6.92958 3.46813 7.07113 3.55048 7.14788 3.68446C7.22452 3.81855 7.22452 3.98373 7.14787 4.11783C7.07113 4.25189 6.92959 4.33414 6.77674 4.33414Z"  stroke="white" stroke-width="0.1"/>
</svg>
