<svg width="16" height="17" viewBox="0 0 16 17" fill="none" xmlns="http://www.w3.org/2000/svg">
<g clip-path="url(#clip0_528_24420)">
<path d="M12.3319 8.44165L12.3317 8.44197C12.0966 8.87399 11.6405 9.15957 11.1218 9.15957H5.41013H5.3211L5.27846 9.23772L4.43513 10.7832L4.31406 11.005H4.5668H13.6168V12.2505H4.5668C3.51862 12.2505 2.85003 11.1157 3.35685 10.1772C3.35693 10.1771 3.35701 10.177 3.35709 10.1768L4.39162 8.29221L4.42837 8.22526L4.39585 8.15616L1.63585 2.29116L1.59532 2.20503H1.50013H0.116797V0.95957H2.37824L3.05852 2.41842L3.0989 2.50503H3.19446H14.5411C15.0077 2.50503 15.3059 3.01426 15.077 3.42575L15.0765 3.42665L12.3319 8.44165ZM3.9228 3.75048H3.68649L3.78706 3.96432L5.60406 7.82795L5.64458 7.91412H5.7398H11.1218H11.2107L11.2534 7.83617L13.3694 3.97253L13.491 3.75048H13.2378H3.9228ZM3.19113 14.7187C3.19113 13.9494 3.80839 13.3232 4.5668 13.3232C5.32618 13.3232 5.95013 13.9504 5.95013 14.7187C5.95013 15.4869 5.32618 16.1141 4.5668 16.1141C3.80839 16.1141 3.19113 15.4879 3.19113 14.7187ZM10.8578 14.7187C10.8578 13.9494 11.4751 13.3232 12.2335 13.3232C12.9928 13.3232 13.6168 13.9504 13.6168 14.7187C13.6168 15.4869 12.9928 16.1141 12.2335 16.1141C11.4751 16.1141 10.8578 15.4879 10.8578 14.7187Z" fill="#333333" stroke="#F5F5F5" stroke-width="0.3"/>
</g>
<defs>
<clipPath id="clip0_528_24420">
<rect width="16" height="17" fill="white"/>
</clipPath>
</defs>
</svg>
