<svg width="22" height="15" viewBox="0 0 22 15" fill="none" xmlns="http://www.w3.org/2000/svg">
<path d="M21.3248 7.94181L21.324 7.93779L19.3952 3.38594C19.318 3.20346 19.1453 3.08577 18.9548 3.08577H15.0976V0.557026C15.0976 0.277619 14.8818 0.0512695 14.6154 0.0512695H4.00851C3.88052 0.0512695 3.75795 0.104506 3.66745 0.199259C3.57712 0.294179 3.52637 0.422751 3.52637 0.557018C3.52637 0.691114 3.57712 0.819685 3.66745 0.914609C3.75794 1.00936 3.88051 1.06277 4.00851 1.06277H14.1333V8.14319C14.1333 8.4226 14.3493 8.64895 14.6155 8.64895H20.4013V12.1892H18.8864C18.7453 11.6066 18.3632 11.1207 17.8448 10.8643C17.3266 10.608 16.726 10.608 16.2077 10.8643C15.6894 11.1208 15.3074 11.6066 15.1663 12.1892H9.72578C9.58469 11.6066 9.2026 11.1207 8.68441 10.8643C8.16601 10.608 7.56545 10.608 7.04726 10.8643C6.52887 11.1208 6.14681 11.6066 6.00573 12.1892H4.49083V8.14319C4.49083 7.86395 4.27489 7.63744 4.00868 7.63744C3.74231 7.63744 3.52652 7.86395 3.52652 8.14319V12.695C3.52652 12.9745 3.7423 13.2008 4.00868 13.2008H6.00573C6.14682 13.7836 6.52891 14.2694 7.04726 14.5259C7.5655 14.7822 8.16605 14.7822 8.68425 14.5259C9.20264 14.2694 9.5847 13.7836 9.72578 13.2008H15.1663C15.3076 13.7836 15.6897 14.2694 16.2078 14.5259C16.7262 14.7822 17.3268 14.7822 17.845 14.5259C18.3634 14.2694 18.7454 13.7836 18.8865 13.2008H20.8836C21.1499 13.2008 21.3657 12.9745 21.3657 12.695V8.14319C21.3656 8.07388 21.3517 8.00525 21.325 7.9418L21.3248 7.94181ZM7.86561 13.7065C7.60978 13.7065 7.36446 13.6 7.18367 13.4104C7.00284 13.2207 6.90134 12.9634 6.90134 12.695C6.90134 12.4269 7.00284 12.1695 7.18367 11.9798C7.36449 11.7902 7.60981 11.6835 7.86561 11.6835C8.12129 11.6835 8.3666 11.7902 8.54744 11.9798C8.72827 12.1695 8.82993 12.4268 8.82993 12.695C8.82961 12.9632 8.72794 13.2204 8.54712 13.4101C8.36629 13.5997 8.12131 13.7064 7.86562 13.7066L7.86561 13.7065ZM17.0262 13.7065C16.7704 13.7065 16.525 13.6 16.3442 13.4104C16.1634 13.2207 16.0618 12.9634 16.0618 12.6952C16.0618 12.4268 16.1634 12.1695 16.3442 11.9798C16.5251 11.7902 16.7704 11.6835 17.0261 11.6835C17.2819 11.6835 17.5272 11.7902 17.708 11.9798C17.8888 12.1695 17.9903 12.4268 17.9903 12.695C17.9902 12.9632 17.8885 13.2204 17.7077 13.4101C17.5269 13.5997 17.2817 13.7064 17.026 13.7066L17.0262 13.7065ZM15.0975 4.09753H18.6413L20.1414 7.63774H15.0976L15.0975 4.09753Z" fill="#333333"/>
<path d="M9.79445 3.08632C9.79429 2.80692 9.57852 2.58057 9.3123 2.58057H1.11594C0.849576 2.58057 0.633789 2.8069 0.633789 3.08632C0.633789 3.36556 0.849564 3.59208 1.11594 3.59208H9.3123C9.57851 3.59191 9.79429 3.36557 9.79445 3.08632Z" fill="#333333"/>
<path d="M9.31219 5.10889H4.00852C3.74215 5.10889 3.52637 5.33522 3.52637 5.61464C3.52637 5.89388 3.74214 6.1204 4.00852 6.1204H9.31219C9.5784 6.1204 9.79434 5.89389 9.79434 5.61464C9.79434 5.33524 9.57841 5.10889 9.31219 5.10889Z" fill="#333333"/>
</svg>
