<svg width="21" height="15" viewBox="0 0 21 15" fill="none" xmlns="http://www.w3.org/2000/svg">
<g clip-path="url(#clip0_434_3929)">
<path d="M15.2913 9.66683H15.5413V9.41683V1.75016V1.50016H15.2913H1.87467H1.62467V1.75016V9.41683V9.66683H1.87467H15.2913ZM19.3747 13.2502V2.9585H19.3775H19.3826H19.3876H19.3927H19.3977H19.4027H19.4076H19.4126H19.4175H19.4224H19.4273H19.4322H19.437H19.4419H19.4467H19.4514H19.4562H19.461H19.4657H19.4704H19.4751H19.4797H19.4844H19.489H19.4936H19.4982H19.5028H19.5073H19.5118H19.5163H19.5208H19.5253H19.5298H19.5342H19.5386H19.543H19.5474H19.5517H19.5561H19.5604H19.5647H19.569H19.5732H19.5775H19.5817H19.586H19.5901H19.5943H19.5985H19.6026H19.6068H19.6109H19.615H19.6191H19.6231H19.6272H19.6312H19.6352H19.6392H19.6432H19.6471H19.6511H19.655H19.6589H19.6628H19.6667H19.6706H19.6745H19.6783H19.6821H19.6859H19.6897H19.6935H19.6973H19.701H19.7047H19.7085H19.7122H19.7159H19.7195H19.7232H19.7269H19.7305H19.7341H19.7377H19.7413H19.7449H19.7485H19.752H19.7556H19.7591H19.7626H19.7661H19.7696H19.7731H19.7765H19.78H19.7834H19.7868H19.7903H19.7937H19.7971H19.8004H19.8038H19.8072H19.8105H19.8138H19.8171H19.8205H19.8238H19.827H19.8303H19.8336H19.8368H19.8401H19.8433H19.8465H19.8497H19.8529H19.8561H19.8593H19.8625H19.8656H19.8688H19.8719H19.8751H19.8782H19.8813H19.8844H19.8875H19.8906H19.8936H19.8967H19.8998H19.9028H19.9059H19.9089H19.9119H19.9149H19.9179H19.9209H19.9239H19.9269H19.9299H19.9328H19.9358H19.9387H19.9417H19.9446H19.9476H19.9505H19.9534H19.9563H19.9592H19.9621H19.965H19.9679H19.9707H19.9736H19.9765H19.9793H19.9822H19.985H19.9878H19.9907H19.9935H19.9963H19.9991H20.0019H20.0047H20.0075H20.0103H20.0131H20.0159H20.0187H20.0214H20.0242H20.027H20.0297H20.0325H20.0352H20.038H20.0407H20.0435H20.0462H20.0489H20.0517H20.0544H20.0571H20.0598H20.0625H20.0652H20.068H20.0707H20.0734H20.0761H20.0788H20.0814H20.0841H20.0868H20.0895H20.0922H20.0949H20.0976H20.1002H20.1029H20.1056H20.1083H20.1109H20.1136H20.1163H20.1189H20.1216H20.1243H20.1269H20.1296H20.1323H20.1349H20.1376H20.1403H20.1429H20.1456H20.1482H20.1509H20.1536H20.1562H20.1589H20.1615H20.1642H20.1669H20.1695H20.1722H20.1749H20.1775H20.1802H20.1829H20.1855H20.1882H20.1909H20.1936H20.1962H20.1989H20.2016H20.2043H20.207H20.2096H20.2123H20.215H20.2177H20.2204H20.2231H20.2258H20.2285H20.2312H20.2339H20.2366H20.2394H20.2421H20.2448H20.2475H20.2503H20.253H20.2557H20.2585H20.2612H20.264H20.2667H20.2695H20.2722H20.275H20.2778H20.2806H20.2833H20.2861H20.2889H20.2917H20.2945H20.2973H20.3001H20.3029H20.3058H20.3086H20.3114H20.3143H20.3171H20.32H20.3228H20.3257H20.3286H20.3314H20.3343H20.3372H20.3401H20.343H20.3459H20.3489H20.3518H20.3547H20.3577H20.3606H20.3636H20.3665H20.3695H20.3725H20.3755H20.3785H20.3815H20.3845H20.3875H20.3905H20.3936H20.3966H20.3997H20.4027H20.4058H20.4089H20.412H20.4151H20.4182H20.4213H20.4244H20.4276H20.4307H20.4339H20.437H20.4402H20.4434H20.4466H20.4498H20.453H20.4563H20.4595H20.4627H20.466H20.4693H20.4726H20.4759H20.4792H20.4825H20.4858H20.4891H20.4925H20.4959H20.4992H20.5026H20.506H20.5094H20.5129H20.5163H20.5197H20.5232H20.5267H20.5302H20.5337H20.5372H20.5407H20.5442H20.5478H20.5513H20.5549H20.5585H20.5621H20.5657H20.5694H20.573H20.5767H20.5803H20.584H20.5877H20.5915H20.5952H20.5989H20.6027H20.6065H20.6103H20.6141H20.6179H20.6217H20.6256H20.6294H20.6333H20.6372H20.6411H20.6451H20.649H20.653H20.6569H20.6609H20.6649H20.669H20.673H20.6771H20.6811H20.6852H20.6893H20.6935H20.6976H20.7018H20.7059H20.7101H20.7143H20.7186H20.7228H20.7271H20.7314H20.7357H20.74H20.7443H20.7487H20.753H20.7574H20.7618H20.7663H20.7707H20.7752H20.7797H20.7842H20.7887H20.7913V13.2502C20.7913 14.1663 20.0408 14.9168 19.1247 14.9168H3.08301V14.9142V14.9097V14.9051V14.9007V14.8962V14.8918V14.8873V14.8829V14.8785V14.8742V14.8698V14.8655V14.8611V14.8568V14.8526V14.8483V14.8441V14.8398V14.8356V14.8314V14.8272V14.8231V14.8189V14.8148V14.8107V14.8066V14.8025V14.7985V14.7944V14.7904V14.7864V14.7824V14.7784V14.7745V14.7705V14.7666V14.7627V14.7588V14.7549V14.7511V14.7472V14.7434V14.7395V14.7357V14.732V14.7282V14.7244V14.7207V14.7169V14.7132V14.7095V14.7058V14.7022V14.6985V14.6949V14.6912V14.6876V14.684V14.6804V14.6768V14.6733V14.6697V14.6662V14.6627V14.6591V14.6556V14.6522V14.6487V14.6452V14.6418V14.6383V14.6349V14.6315V14.6281V14.6247V14.6213V14.618V14.6146V14.6113V14.608V14.6046V14.6013V14.598V14.5948V14.5915V14.5882V14.585V14.5817V14.5785V14.5753V14.5721V14.5689V14.5657V14.5625V14.5594V14.5562V14.5531V14.5499V14.5468V14.5437V14.5406V14.5375V14.5344V14.5313V14.5282V14.5251V14.5221V14.519V14.516V14.513V14.51V14.507V14.5039V14.501V14.498V14.495V14.492V14.489V14.4861V14.4831V14.4802V14.4773V14.4743V14.4714V14.4685V14.4656V14.4627V14.4598V14.4569V14.4541V14.4512V14.4483V14.4455V14.4426V14.4398V14.4369V14.4341V14.4313V14.4284V14.4256V14.4228V14.42V14.4172V14.4144V14.4116V14.4088V14.406V14.4033V14.4005V14.3977V14.395V14.3922V14.3895V14.3867V14.384V14.3812V14.3785V14.3757V14.373V14.3703V14.3676V14.3648V14.3621V14.3594V14.3567V14.354V14.3513V14.3486V14.3459V14.3432V14.3405V14.3378V14.3351V14.3324V14.3298V14.3271V14.3244V14.3217V14.319V14.3164V14.3137V14.311V14.3084V14.3057V14.303V14.3004V14.2977V14.295V14.2924V14.2897V14.287V14.2844V14.2817V14.279V14.2764V14.2737V14.2711V14.2684V14.2657V14.2631V14.2604V14.2578V14.2551V14.2524V14.2498V14.2471V14.2444V14.2418V14.2391V14.2364V14.2338V14.2311V14.2284V14.2257V14.2231V14.2204V14.2177V14.215V14.2123V14.2096V14.2069V14.2042V14.2015V14.1989V14.1961V14.1934V14.1907V14.188V14.1853V14.1826V14.1799V14.1772V14.1744V14.1717V14.169V14.1662V14.1635V14.1607V14.158V14.1552V14.1525V14.1497V14.1469V14.1442V14.1414V14.1386V14.1358V14.133V14.1302V14.1274V14.1246V14.1218V14.119V14.1162V14.1133V14.1105V14.1076V14.1048V14.1019V14.0991V14.0962V14.0933V14.0905V14.0876V14.0847V14.0818V14.0789V14.076V14.073V14.0701V14.0672V14.0642V14.0613V14.0583V14.0554V14.0524V14.0494V14.0464V14.0434V14.0404V14.0374V14.0344V14.0313V14.0283V14.0253V14.0222V14.0191V14.0161V14.013V14.0099V14.0068V14.0037V14.0005V13.9974V13.9943V13.9911V13.988V13.9848V13.9816V13.9784V13.9752V13.972V13.9688V13.9656V13.9623V13.9591V13.9558V13.9525V13.9492V13.9459V13.9426V13.9393V13.936V13.9326V13.9293V13.9259V13.9225V13.9192V13.9158V13.9123V13.9089V13.9055V13.902V13.8986V13.8951V13.8916V13.8881V13.8846V13.881V13.8775V13.874V13.8704V13.8668V13.8632V13.8596V13.856V13.8523V13.8487V13.845V13.8414V13.8377V13.834V13.8302V13.8265V13.8228V13.819V13.8152V13.8114V13.8076V13.8038V13.7999V13.7961V13.7922V13.7883V13.7844V13.7805V13.7766V13.7726V13.7687V13.7647V13.7607V13.7567V13.7527V13.7486V13.7445V13.7405V13.7364V13.7323V13.7281V13.724V13.7198V13.7156V13.7114V13.7072V13.703V13.6987V13.6945V13.6902V13.6859V13.6816V13.6772V13.6729V13.6685V13.6641V13.6597V13.6552V13.6508V13.6463V13.6418V13.6373V13.6328V13.6282V13.6237V13.6191V13.6145V13.6099V13.6052V13.6006V13.5959V13.5912V13.5864V13.5817V13.5769V13.5722V13.5673V13.5625V13.5577V13.5528V13.5479V13.543V13.5381V13.5331V13.5282V13.5232V13.5181V13.5131V13.508V13.503V13.5002H19.1247H19.3747V13.2502ZM16.958 1.75016V9.41683C16.958 10.3329 16.2074 11.0835 15.2913 11.0835H1.87467C0.958579 11.0835 0.208008 10.3329 0.208008 9.41683V1.75016C0.208008 0.834067 0.958579 0.0834961 1.87467 0.0834961H15.2913C16.2074 0.0834961 16.958 0.834067 16.958 1.75016Z" fill="#333333" stroke="white" stroke-width="0.5"/>
</g>
<defs>
<clipPath id="clip0_434_3929">
<rect width="21" height="15" fill="white"/>
</clipPath>
</defs>
</svg>
