<svg width="13" height="15" viewBox="0 0 13 15" fill="none" xmlns="http://www.w3.org/2000/svg">
<g clip-path="url(#clip0_434_3933)">
<path d="M6.2982 14.9448L6.29785 14.9447C3.89441 13.8977 2.33396 12.9369 1.3735 11.7941C0.415194 10.6539 0.05 9.32713 0.05 7.53682V2.71427C0.05 2.58561 0.101675 2.46203 0.193797 2.3709C0.285938 2.27975 0.411118 2.22843 0.541677 2.22843C2.06348 2.22843 3.47019 1.72412 4.49834 1.21862C5.52684 0.712956 6.17986 0.204441 6.19529 0.192242L6.16428 0.153017L6.19507 0.192414C6.2819 0.124562 6.3894 0.0875977 6.50019 0.0875977C6.61097 0.0875977 6.71849 0.124563 6.8053 0.192411C6.82327 0.206508 7.47841 0.713984 8.50616 1.21863C9.53561 1.72411 10.9423 2.22843 12.4587 2.22843C12.5892 2.22843 12.714 2.27973 12.8062 2.3709C12.8983 2.46203 12.95 2.58561 12.95 2.71427V7.53682C12.95 9.32713 12.5849 10.6539 11.6266 11.7942C10.6661 12.937 9.10569 13.8977 6.70215 14.9447L6.70181 14.9448C6.5735 15.0019 6.42649 15.0019 6.2982 14.9448ZM6.47978 13.9589L6.50025 13.9681L6.52071 13.9589C8.85142 12.9134 10.2151 12.0091 10.9949 11.0131C11.7768 10.0143 11.967 8.92927 11.967 7.53682V3.25011V3.2049L11.922 3.20036C9.97927 3.00421 8.1211 2.31304 6.52899 1.19441L6.50025 1.17421L6.4715 1.19441C4.87952 2.31307 3.02132 3.00423 1.07846 3.20036L1.03348 3.2049V3.25011V7.53682C1.03348 8.92931 1.22365 10.0143 2.00558 11.0131C2.78535 12.0091 4.14907 12.9134 6.47978 13.9589ZM5.92327 7.88835L5.95849 7.92346L5.99379 7.88843L7.77581 6.12023C7.90062 5.99686 8.08258 5.94854 8.25321 5.99377L8.26602 5.94544L8.25321 5.99378C8.42392 6.03901 8.55681 6.17068 8.60238 6.33899L8.60238 6.339C8.64794 6.50713 8.59938 6.68666 8.47472 6.81009L6.30803 8.95343L6.30789 8.95358C6.21563 9.0456 6.08992 9.09746 5.95857 9.09746C5.82723 9.09746 5.70152 9.0456 5.60926 8.95358L5.60912 8.95343L4.52578 7.88177C4.52577 7.88177 4.52577 7.88176 4.52576 7.88176C4.40112 7.75834 4.35256 7.57882 4.39812 7.41068L4.39812 7.41067C4.4437 7.24236 4.57658 7.11069 4.74729 7.06546L4.74729 7.06545C4.91786 7.02023 5.09976 7.06851 5.22459 7.19181C5.22463 7.19184 5.22466 7.19188 5.2247 7.19191L5.92327 7.88835ZM4.73448 7.01712C4.92213 6.96737 5.12235 7.02047 5.25985 7.15635L4.73448 7.01712Z" fill="#333333" stroke="white" stroke-width="0.1"/>
</g>
<defs>
<clipPath id="clip0_434_3933">
<rect width="13" height="15" fill="white"/>
</clipPath>
</defs>
</svg>
