<svg width="20" height="20" viewBox="0 0 20 20" fill="none" xmlns="http://www.w3.org/2000/svg">

        <path d="M9.84773 3.21967L10 3.39848L10.1523 3.21967C11.2056 1.98279 12.8206 1.2 14.5 1.2C17.4695 1.2 19.8 3.53046 19.8 6.5C19.8 8.3243 18.9814 9.99529 17.5014 11.8046C16.0196 13.6163 13.8957 15.5423 11.3175 17.8802L11.3157 17.8818L11.3154 17.8821L9.99949 19.08L8.68451 17.892L8.68408 17.8916L8.6555 17.8656C6.08951 15.5338 3.9753 13.6126 2.4986 11.8059C1.01865 9.99531 0.2 8.32431 0.2 6.5C0.2 3.53046 2.53046 1.2 5.5 1.2C7.17944 1.2 8.79445 1.98279 9.84773 3.21967ZM4.01305 11.1225C5.40248 12.7461 7.38722 14.5446 9.76209 16.6949L9.85858 16.7914L10 16.9328L10.1414 16.7914L10.2379 16.6949C12.6128 14.5446 14.5975 12.7461 15.987 11.1225C17.3752 9.50046 18.2 8.01882 18.2 6.5C18.2 4.38954 16.6105 2.8 14.5 2.8C12.9315 2.8 11.399 3.77471 10.8051 5.16H9.204C8.60133 3.77534 7.0692 2.8 5.5 2.8C3.38954 2.8 1.8 4.38954 1.8 6.5C1.8 8.01882 2.62485 9.50046 4.01305 11.1225Z"
              fill="white" stroke="#333333" stroke-width="0.4"/>


</svg>
