<svg width="16" height="16" viewBox="0 0 16 16" fill="none" xmlns="http://www.w3.org/2000/svg">
<g clip-path="url(#clip0_528_24425)">
<path d="M7.8858 2.5693L8 2.70341L8.1142 2.5693C8.95866 1.57764 10.2534 0.950049 11.6 0.950049C13.9812 0.950049 15.85 2.81889 15.85 5.20005C15.85 6.66278 15.1935 8.00177 14.0089 9.45008C12.8229 10.9 11.1233 12.4412 9.06119 14.3112L9.05924 14.3129L9.05902 14.3131L7.99962 15.2776L6.94088 14.321L6.94056 14.3207L6.91714 14.2995C4.86478 12.4344 3.17296 10.897 1.99114 9.45112C0.806487 8.00178 0.15 6.66278 0.15 5.20005C0.15 2.81889 2.01884 0.950049 4.4 0.950049C5.74658 0.950049 7.04134 1.57764 7.8858 2.5693ZM3.21804 8.89158C4.32911 10.1898 5.91641 11.6282 7.81656 13.3487L7.89393 13.4261L8 13.5322L8.10607 13.4261L8.18344 13.3487C10.0836 11.6282 11.6709 10.1898 12.782 8.89158C13.8921 7.59439 14.55 6.41142 14.55 5.20005C14.55 3.51721 13.2828 2.25005 11.6 2.25005C10.3466 2.25005 9.12221 3.03053 8.65071 4.13805H7.35664C6.87801 3.031 5.6539 2.25005 4.4 2.25005C2.71716 2.25005 1.45 3.51721 1.45 5.20005C1.45 6.41142 2.10789 7.59439 3.21804 8.89158Z" fill="#333333" stroke="#F5F5F5" stroke-width="0.3"/>
</g>
<defs>
<clipPath id="clip0_528_24425">
<rect width="16" height="16" fill="white"/>
</clipPath>
</defs>
</svg>
