<svg width="15" height="14" viewBox="0 0 15 14" fill="none" xmlns="http://www.w3.org/2000/svg">
<path fill-rule="evenodd" clip-rule="evenodd" d="M4.1621 5.59804L4.52945 5.3417C4.80493 5.17073 4.8968 4.82889 4.75906 4.52976L3.74875 1.88025C3.65688 1.58112 3.42728 1.41014 3.10578 1.36745C1.49849 1.19648 -0.246739 2.13659 0.0289278 3.76048C0.763736 7.991 6.41218 13.2898 11.0047 13.9737C12.7038 14.2301 13.7141 12.5635 13.5305 11.0679C13.4846 10.7688 13.3009 10.5551 13.0253 10.4696L10.1321 9.52952C9.81063 9.40135 9.44326 9.52952 9.25954 9.74318L8.98406 10.085C8.70858 10.3841 8.24925 10.4696 7.92787 10.256C6.41234 9.31585 5.0347 7.9911 3.97842 6.58091C3.74881 6.28178 3.84062 5.85441 4.1621 5.59804Z" fill="#F20000"/>
<path d="M7.4685 0.940226C7.19303 0.940226 6.96329 0.726566 6.96329 0.470113C6.96329 0.213772 7.19291 0 7.4685 0C11.6016 0 15 3.16228 15 7.00827C15 7.26462 14.7704 7.47839 14.4948 7.47839C14.2193 7.47839 13.9896 7.26473 13.9896 7.00827C13.9896 3.67506 11.0506 0.940226 7.4685 0.940226Z" fill="#F20000"/>
<path d="M7.46848 2.64972C7.193 2.64972 6.96327 2.43606 6.96327 2.17961C6.96327 1.92327 7.19288 1.7095 7.46848 1.7095C10.6371 1.7095 13.209 4.10253 13.209 7.0085C13.209 7.26484 12.9794 7.47861 12.7038 7.47861C12.4283 7.47861 12.1985 7.26495 12.1985 7.0085C12.1985 4.61546 10.0861 2.64972 7.46848 2.64972Z" fill="#F20000"/>
<path d="M7.46851 4.31595C7.19303 4.31595 6.96329 4.10229 6.96329 3.84584C6.96329 3.5895 7.19291 3.37573 7.46851 3.37573C9.62686 3.37573 11.3721 4.99961 11.3721 7.00813C11.3721 7.26447 11.1425 7.47824 10.8669 7.47824C10.5914 7.47824 10.3617 7.26458 10.3617 7.00813C10.3617 5.5125 9.07588 4.31595 7.46851 4.31595Z" fill="#F20000"/>
</svg>
