<svg width="18" height="17" viewBox="0 0 18 17" fill="none" xmlns="http://www.w3.org/2000/svg">
<path d="M7.48712 14.0337C6.0539 14.0404 4.65097 13.6341 3.45607 12.8666C2.26117 12.099 1.32808 11.0045 0.775186 9.72195C0.222169 8.43944 0.074312 7.02653 0.350229 5.66219C0.626146 4.29786 1.31335 3.044 2.32479 2.05896C3.33632 1.07403 4.62654 0.402596 6.0318 0.129681C7.43707 -0.143119 8.89435 -0.00512509 10.2188 0.526206C11.5432 1.05766 12.6752 1.95838 13.471 3.11457C14.267 4.27063 14.6912 5.62992 14.6899 7.02004C14.6904 8.87561 13.9325 10.6556 12.5824 11.9702C11.2324 13.2848 9.40024 14.0267 7.48712 14.0335V14.0337ZM7.48712 1.35262C6.33054 1.3459 5.19776 1.67249 4.23271 2.29084C3.2675 2.90931 2.51339 3.79177 2.06593 4.82636C1.61835 5.86096 1.4976 7.00108 1.71892 8.10231C1.94022 9.20354 2.4936 10.2163 3.30899 11.012C4.12426 11.8079 5.16486 12.351 6.29885 12.5727C7.43271 12.7942 8.609 12.6842 9.67839 12.2567C10.7478 11.829 11.6623 11.1032 12.3059 10.1709C12.9495 9.23868 13.2934 8.14207 13.2937 7.01995C13.2969 5.52198 12.6873 4.08403 11.5988 3.02148C10.5102 1.95896 9.0315 1.35875 7.48715 1.3525L7.48712 1.35262Z" fill="#BCBCBC"/>
<path d="M16.7295 16.908L11.9097 12.2582L12.8963 11.3013L17.7161 15.9492L16.7295 16.908Z" fill="#BCBCBC"/>
</svg>
