<svg width="26" height="26" viewBox="0 0 26 26" fill="none" xmlns="http://www.w3.org/2000/svg">
<path d="M22.0876 0.850586H3.91279C2.24244 0.850586 0.883789 2.2131 0.883789 3.88791V22.1118C0.883789 23.7868 2.24249 25.1494 3.91279 25.1494H22.0876C23.7582 25.1494 25.1169 23.7868 25.1169 22.1118V3.88796C25.117 2.2131 23.7583 0.850586 22.0876 0.850586Z" fill="#1B80E4"/>
<path d="M21.3303 13.0002H17.5438V9.96278C17.5438 9.12438 18.2225 9.20355 19.0583 9.20355H20.5731V5.40674H17.5438C15.0342 5.40674 13.0003 7.44621 13.0003 9.96278V13.0002H9.97119V16.7969H13.0003V25.1496H17.5438V16.7969H19.8157L21.3303 13.0002Z" fill="#FCFCFC"/>
</svg>
