<svg width="25" height="25" viewBox="0 0 25 25" fill="none" xmlns="http://www.w3.org/2000/svg">
<path d="M4.375 25L20.625 25C23.0412 25 25 23.0412 25 20.625L25 4.375C25 1.95875 23.0412 0 20.625 0L4.375 0C1.95875 0 0 1.95875 0 4.375L0 20.625C0 23.0412 1.95875 25 4.375 25Z" fill="url(#paint0_radial_536_1764)"/>
<path d="M17.1875 21.875H7.8125C6.5693 21.875 5.37701 21.3811 4.49794 20.5021C3.61886 19.623 3.125 18.4307 3.125 17.1875V7.8125C3.125 6.5693 3.61886 5.37701 4.49794 4.49794C5.37701 3.61886 6.5693 3.125 7.8125 3.125H17.1875C18.4307 3.125 19.623 3.61886 20.5021 4.49794C21.3811 5.37701 21.875 6.5693 21.875 7.8125V17.1875C21.875 18.4307 21.3811 19.623 20.5021 20.5021C19.623 21.3811 18.4307 21.875 17.1875 21.875ZM7.8125 5C7.0669 5.00103 6.35213 5.29768 5.8249 5.8249C5.29768 6.35213 5.00103 7.0669 5 7.8125V17.1875C5.00103 17.9331 5.29768 18.6479 5.8249 19.1751C6.35213 19.7023 7.0669 19.999 7.8125 20H17.1875C17.9331 19.999 18.6479 19.7023 19.1751 19.1751C19.7023 18.6479 19.999 17.9331 20 17.1875V7.8125C19.999 7.0669 19.7023 6.35213 19.1751 5.8249C18.6479 5.29768 17.9331 5.00103 17.1875 5H7.8125Z" fill="white"/>
<path d="M12.5 17.8125C11.4493 17.8125 10.4222 17.5009 9.54854 16.9172C8.6749 16.3334 7.99398 15.5037 7.59189 14.533C7.1898 13.5623 7.0846 12.4941 7.28958 11.4636C7.49456 10.4331 8.00053 9.48646 8.7435 8.7435C9.48646 8.00053 10.4331 7.49456 11.4636 7.28958C12.4941 7.0846 13.5623 7.1898 14.533 7.59189C15.5037 7.99398 16.3334 8.6749 16.9172 9.54854C17.5009 10.4222 17.8125 11.4493 17.8125 12.5C17.8115 13.9086 17.2514 15.2593 16.2554 16.2554C15.2593 17.2514 13.9086 17.8115 12.5 17.8125ZM12.5 9.0625C11.8201 9.0625 11.1555 9.26411 10.5902 9.64183C10.0249 10.0195 9.58434 10.5564 9.32417 11.1845C9.06399 11.8126 8.99592 12.5038 9.12855 13.1706C9.26119 13.8374 9.58858 14.4499 10.0693 14.9307C10.5501 15.4114 11.1626 15.7388 11.8294 15.8714C12.4962 16.0041 13.1874 15.936 13.8155 15.6758C14.4436 15.4157 14.9805 14.9751 15.3582 14.4098C15.7359 13.8445 15.9375 13.1799 15.9375 12.5C15.9365 11.5886 15.574 10.7149 14.9295 10.0705C14.2851 9.42603 13.4114 9.06354 12.5 9.0625Z" fill="white"/>
<path d="M17.8125 8.4375C18.3303 8.4375 18.75 8.01777 18.75 7.5C18.75 6.98223 18.3303 6.5625 17.8125 6.5625C17.2947 6.5625 16.875 6.98223 16.875 7.5C16.875 8.01777 17.2947 8.4375 17.8125 8.4375Z" fill="white"/>
<defs>
<radialGradient id="paint0_radial_536_1764" cx="0" cy="0" r="1" gradientUnits="userSpaceOnUse" gradientTransform="translate(-0.502928 24.4922) rotate(180) scale(57.7324)">
<stop stop-color="#F9ED32"/>
<stop offset="0.36" stop-color="#EE2A7B"/>
<stop offset="0.44" stop-color="#D22A8A"/>
<stop offset="0.6" stop-color="#8B2AB2"/>
<stop offset="0.83" stop-color="#1B2AF0"/>
<stop offset="0.88" stop-color="#002AFF"/>
</radialGradient>
</defs>
</svg>
