<svg width="24" height="24" viewBox="0 0 24 24" fill="none" xmlns="http://www.w3.org/2000/svg">
<g clip-path="url(#clip0_536_1770)">
<path fill-rule="evenodd" clip-rule="evenodd" d="M22.8122 1.31714C23.3528 2.03143 23.5964 3.21548 23.7163 4.65493C23.875 6.80301 23.9387 9.38071 23.9996 12.0443C23.9208 14.7575 23.8887 17.4939 23.7163 19.4337C23.5803 20.9228 23.2914 21.9199 22.8089 22.5246C22.1951 23.1285 21.0176 23.6383 19.3387 23.7592C17.2967 23.9334 14.7774 23.9315 11.9979 24C8.9083 23.9471 6.81296 23.9697 4.61471 23.7601C2.89991 23.6412 1.77812 23.1374 1.08786 22.5293C0.576541 21.8429 0.426874 21.113 0.285234 19.4021C0.108183 17.4263 0.0689962 14.749 0.00195312 12.059C0.102518 9.38307 0.108656 6.68593 0.28665 4.67004C0.4061 3.07951 0.594482 2.01019 1.07748 1.33036C1.75499 0.75297 2.91077 0.465929 4.63501 0.324297C6.99568 0.0481148 9.45361 -0.00617741 11.9946 -4.00296e-05C14.6098 0.00420893 17.1201 0.0788017 19.3599 0.299275C20.8708 0.420135 22.121 0.680265 22.8098 1.31714H22.8122Z" fill="#2CA3DB"/>
<path d="M17.8037 5.83616L5.31668 10.6516C4.46448 10.9934 4.46967 11.4689 5.16135 11.6808L8.27744 12.6529L9.4691 16.3061C9.61405 16.7059 9.54276 16.8646 9.96248 16.8646C10.2864 16.8646 10.4304 16.7168 10.6107 16.5407C10.7255 16.4283 11.4067 15.766 12.1688 15.0262L15.4081 17.4198C16.0044 17.7502 16.4345 17.5784 16.5832 16.866L18.7078 6.84599C18.9245 5.97354 18.374 5.57933 17.8037 5.83616ZM8.76421 12.4301L15.7839 8.00171C16.1342 7.78926 16.4557 7.90351 16.1918 8.13768L10.1816 13.5603L9.94549 16.0563L8.76421 12.4301Z" fill="white"/>
</g>
<defs>
<clipPath id="clip0_536_1770">
<rect width="24" height="24" fill="white"/>
</clipPath>
</defs>
</svg>
