<svg width="25" height="25" viewBox="0 0 25 25" fill="none" xmlns="http://www.w3.org/2000/svg">
<g clip-path="url(#clip0_536_1761)">
<path fill-rule="evenodd" clip-rule="evenodd" d="M23.7626 1.37204C24.3257 2.1161 24.5795 3.34948 24.7044 4.84891C24.8697 7.08649 24.9361 9.7716 24.9995 12.5462C24.9174 15.3725 24.8839 18.2228 24.7044 20.2435C24.5628 21.7946 24.2618 22.8332 23.7592 23.4632C23.1198 24.0922 21.8932 24.6233 20.1444 24.7492C18.0173 24.9306 15.393 24.9287 12.4978 25C9.27939 24.9449 7.09676 24.9685 4.8069 24.7502C3.02066 24.6262 1.85213 24.1015 1.13311 23.4681C0.600482 22.7531 0.444579 21.9928 0.297037 20.2106C0.11261 18.1525 0.0717897 15.3636 0.00195312 12.5615C0.106708 9.77406 0.113101 6.96453 0.298513 4.86464C0.42294 3.20784 0.61917 2.09397 1.12229 1.38581C1.82803 0.784364 3.03197 0.485363 4.82805 0.33783C7.28708 0.0501399 9.84743 -0.00641446 12.4943 -2.13523e-05C15.2184 0.00440465 17.8334 0.0821055 20.1665 0.311766C21.7403 0.437661 23.0426 0.70863 23.7601 1.37204H23.7626Z" fill="#675CA8"/>
<path d="M12.1808 4.77905C10.7218 4.77905 9.29547 5.21169 8.08232 6.02224C6.86916 6.8328 5.92362 7.98488 5.36526 9.33279C4.80691 10.6807 4.66082 12.1639 4.94546 13.5948C5.23011 15.0258 5.93271 16.3402 6.96442 17.3718C7.99612 18.4034 9.3106 19.106 10.7416 19.3906C12.1726 19.6753 13.6559 19.5292 15.0039 18.9709C16.3519 18.4125 17.504 17.4671 18.3146 16.254C19.1253 15.0409 19.5579 13.6147 19.5579 12.1557C19.5579 11.187 19.3671 10.2278 18.9964 9.33279C18.6256 8.43781 18.0822 7.62461 17.3972 6.93963C16.7122 6.25464 15.8989 5.71128 15.0039 5.34057C14.1089 4.96986 13.1496 4.77905 12.1808 4.77905ZM12.0928 7.94462C12.1025 7.91085 12.1193 7.87955 12.1421 7.85283C12.165 7.8261 12.1932 7.80458 12.2251 7.78971C12.2747 7.76933 12.3278 7.75896 12.3815 7.75922C12.3815 7.75922 12.4469 7.7548 12.5044 7.75677C14.4549 7.80889 16.1394 9.19374 16.3823 11.2912C16.4126 11.5057 16.4302 11.7218 16.4349 11.9383C16.4349 12.0067 16.4379 12.1306 16.3538 12.2108C16.3223 12.24 16.2839 12.2606 16.2422 12.2708C16.1814 12.259 16.1258 12.2288 16.0828 12.1842C16.0345 12.1257 16.0081 12.0521 16.0081 11.9762C15.9877 11.5951 15.9335 11.2166 15.8462 10.8451C15.5221 9.46815 14.2725 8.38231 12.8644 8.22494C12.7007 8.20674 12.5369 8.18855 12.3726 8.18117C12.261 8.17625 12.1503 8.1556 12.1065 8.08281C12.0847 8.04014 12.0797 7.99077 12.0928 7.94462ZM12.859 9.24095C12.7977 9.2384 12.7369 9.22934 12.6775 9.2139C12.5993 9.19325 12.5384 9.17653 12.4921 9.12292C12.4554 9.0777 12.4351 9.02135 12.4346 8.9631C12.4471 8.91276 12.4749 8.86756 12.5143 8.83376C12.5715 8.79365 12.6416 8.77614 12.711 8.78458C13.8608 8.84212 14.5415 9.50749 14.5415 9.50749C14.7491 9.71545 14.9246 9.95312 15.0623 10.2127C15.2617 10.5862 15.3834 10.9962 15.4198 11.418C15.429 11.5039 15.4156 11.5907 15.381 11.6698C15.3639 11.7161 15.3343 11.7566 15.2954 11.7869C15.2523 11.8171 15.2005 11.8326 15.1479 11.8311C15.1108 11.8174 15.0772 11.7955 15.0495 11.7672C15.0184 11.737 14.9964 11.6987 14.9861 11.6566C14.9256 11.1289 14.843 10.6135 14.5184 10.168C14.1057 9.60388 13.5225 9.35258 12.859 9.24095ZM14.3625 11.2459C14.3512 11.3989 14.2892 11.4554 14.2734 11.4687C14.2356 11.4993 14.1896 11.5179 14.1412 11.5223C14.0908 11.5137 14.0441 11.4904 14.0069 11.4554C13.9619 11.4062 13.9352 11.343 13.9312 11.2764C13.9159 11.1441 13.821 10.7207 13.6046 10.5255C13.4693 10.4035 13.282 10.3391 13.0085 10.2993C12.8988 10.2835 12.7921 10.2609 12.7538 10.1881C12.7347 10.1442 12.7335 10.0947 12.7503 10.0499C12.7951 9.90485 12.9711 9.86305 12.9849 9.8601C13.1015 9.87633 13.8475 9.9914 14.1889 10.5486C14.3146 10.7587 14.375 11.0014 14.3625 11.2459ZM16.4172 15.3547C16.1374 15.6955 15.8669 16.0545 15.5354 16.3383C15.2507 16.5842 14.8789 16.6127 14.5085 16.4612C11.4677 15.221 9.28358 13.1093 8.02505 10.0612C7.99357 9.98501 7.968 9.90583 7.94095 9.82764C7.70537 9.14358 7.77619 8.87802 8.33784 8.41771C8.52295 8.26844 8.7162 8.12955 8.91669 8.00167C9.25161 7.7843 9.61948 7.78676 9.87277 8.09167C10.2985 8.59641 10.6885 9.13031 11.0398 9.68945C11.2975 10.1075 11.2056 10.3445 10.8274 10.6592C10.7398 10.732 10.6464 10.7974 10.5588 10.8697C10.34 11.0517 10.2475 11.2681 10.3439 11.5582C10.7669 12.8186 11.6502 13.6158 12.8807 14.0392C13.0238 14.0884 13.2475 13.9777 13.4039 13.8892C13.521 13.8228 13.5893 13.6719 13.6798 13.5588C13.9257 13.2529 14.3192 13.1235 14.6462 13.3306C15.2295 13.7009 15.7887 14.112 16.3371 14.533C16.4546 14.6235 16.4846 14.828 16.5466 14.9687C16.4954 15.1285 16.4885 15.2682 16.4172 15.3552V15.3547Z" fill="white"/>
</g>
<defs>
<clipPath id="clip0_536_1761">
<rect width="25" height="25" fill="white"/>
</clipPath>
</defs>
</svg>
