<svg width="16" height="21" viewBox="0 0 16 21" fill="none" xmlns="http://www.w3.org/2000/svg">
<g clip-path="url(#clip0_434_3129)">
<path d="M7.83472 20.2469C7.62521 20.1522 7.44944 19.9994 7.32993 19.808C5.38414 17.1483 3.42361 14.4989 1.4884 11.8313C0.751306 10.8075 0.305094 9.61514 0.194083 8.37278C-0.132606 5.13669 1.67908 2.0239 4.75196 0.73997C7.73452 -0.507883 10.5516 -0.127651 13.0737 1.8686C13.8341 2.4655 14.465 3.20165 14.9301 4.0346C15.3951 4.86766 15.6854 5.781 15.784 6.72259C16.0346 8.61403 15.5216 10.526 14.3513 12.062C12.4676 14.6239 10.5827 17.1905 8.69606 19.7616C8.57334 19.9723 8.38705 20.1417 8.16192 20.2471L7.83472 20.2469ZM10.6101 7.63471C10.6127 6.96713 10.3414 6.32578 9.85562 5.85089C9.36968 5.37603 8.70871 5.10642 8.01747 5.1009C7.32612 5.0954 6.66076 5.35456 6.1669 5.82167C5.67307 6.2888 5.39095 6.92574 5.38231 7.59335C5.37354 8.26078 5.63916 8.90441 6.12071 9.38335C6.60227 9.86218 7.26074 10.1374 7.95198 10.1486C8.65006 10.1568 9.32271 9.89619 9.82151 9.42441C10.3202 8.95277 10.6039 8.30874 10.61 7.63467L10.6101 7.63471Z" fill="#F20000"/>
</g>
<defs>
<clipPath id="clip0_434_3129">
<rect width="16" height="20.3656" fill="white" transform="translate(0 0.0214844)"/>
</clipPath>
</defs>
</svg>
