<svg width="220" height="55" viewBox="0 0 220 55" fill="none" xmlns="http://www.w3.org/2000/svg">
<path fill-rule="evenodd" clip-rule="evenodd" d="M0 25.7744V39.2344H6.12744V31.2545H14.1074V25.7327H6.15504V25.7744H0ZM0 21.2775H6.12744V21.244H15.9598V15.7222H0V21.2775ZM19.1658 15.7222V29.2595C19.1658 32.3708 20.1395 34.8882 22.087 36.812C24.0345 38.7119 26.5282 39.6619 29.5682 39.6619C32.5606 39.6619 35.0425 38.7001 37.0137 36.7763C38.985 34.8289 39.9706 32.3233 39.9706 29.2595V15.7222H33.8431V29.7227C33.8431 31.0526 33.4513 32.1095 32.6675 32.8932C31.8838 33.6532 30.8507 34.0332 29.5682 34.0332C28.2857 34.0332 27.2526 33.6532 26.4688 32.8932C25.6851 32.1095 25.2932 31.0526 25.2932 29.7227V15.7222H19.1658ZM58.4957 39.2344H65.3356L59.1369 30.5064C61.6069 28.9864 62.8419 26.7539 62.8419 23.809C62.8419 21.3865 61.9869 19.439 60.2769 17.9665C58.5669 16.4703 56.3938 15.7222 53.7576 15.7222H44.5308V39.2344H50.6582V31.9314H53.1876L58.4957 39.2344ZM50.6582 26.5877V21.0659H53.7932C54.6482 21.0659 55.3251 21.3152 55.8238 21.814C56.3463 22.3127 56.6075 22.9777 56.6075 23.809C56.6075 24.6402 56.3463 25.3171 55.8238 25.8396C55.3251 26.3383 54.6482 26.5877 53.7932 26.5877H50.6582ZM88.6107 15.7222H82.4833V27.4783L69.7297 15.2947H67.7703V39.2344H73.8978V27.3002L86.6514 39.6619H88.6107V15.7222ZM99.4334 15.7222H93.3059V39.2344H99.4334V15.7222ZM109.184 21.244V39.2344H115.312V21.244H122.365V15.7222H102.131V21.244H109.184ZM124.926 15.7222V29.2595C124.926 32.3708 125.9 34.8882 127.848 36.812C129.795 38.7119 132.289 39.6619 135.329 39.6619C138.321 39.6619 140.803 38.7001 142.774 36.7763C144.746 34.8289 145.731 32.3233 145.731 29.2595V15.7222H139.604V29.7227C139.604 31.0526 139.212 32.1095 138.428 32.8932C137.644 33.6532 136.611 34.0332 135.329 34.0332C134.046 34.0332 133.013 33.6532 132.229 32.8932C131.446 32.1095 131.054 31.0526 131.054 29.7227V15.7222H124.926ZM164.256 39.2344H171.096L164.898 30.5064C167.368 28.9864 168.603 26.7539 168.603 23.809C168.603 21.3865 167.748 19.439 166.038 17.9665C164.328 16.4703 162.154 15.7222 159.518 15.7222H150.291V39.2344H156.419V31.9314H158.948L164.256 39.2344ZM156.419 26.5877V21.0659H159.554C160.409 21.0659 161.086 21.3152 161.584 21.814C162.107 22.3127 162.368 22.9777 162.368 23.809C162.368 24.6402 162.107 25.3171 161.584 25.8396C161.086 26.3383 160.409 26.5877 159.554 26.5877H156.419ZM188.6 39.2344H195.868L186.463 26.9083L194.549 15.7222H187.425L179.658 26.3739V15.7222H173.531V39.2344H179.658V27.5139L188.6 39.2344ZM211.91 37.2751L212.765 39.2344H219.355L208.668 15.2947H206.709L196.021 39.2344H202.612L203.467 37.2751H211.91ZM207.706 26.9083L209.737 32.3589H205.64L207.706 26.9083Z" fill="white"/>
<path d="M0.0957031 0H128.55V4.89349H0.0957031V0Z" fill="#F20000"/>
<rect x="90.625" y="49.8745" width="128.454" height="4.89349" fill="#F20000"/>
</svg>
