<svg width="18" height="25" viewBox="0 0 18 25" fill="none" xmlns="http://www.w3.org/2000/svg">
<g clip-path="url(#clip0_434_1905)">
<path d="M14.275 8.33333V8.68333H14.625H15.75C16.7758 8.68333 17.65 9.57914 17.65 10.7143V22.619C17.65 23.7542 16.7758 24.65 15.75 24.65H2.25C1.22419 24.65 0.35 23.7542 0.35 22.619V10.7143C0.35 9.57914 1.22419 8.68333 2.25 8.68333H3.375H3.725V8.33333V5.95238C3.725 2.84105 6.10669 0.35 9 0.35C11.8933 0.35 14.275 2.84105 14.275 5.95238V8.33333ZM12 8.68333H12.35V8.33333V5.95238C12.35 4.90065 12.0489 3.92619 11.4736 3.20698C10.8929 2.48093 10.0437 2.03095 9 2.03095C7.95257 2.03095 7.10338 2.49605 6.52443 3.23323C5.95092 3.96348 5.65 4.94853 5.65 6V8.33333V8.68333H6H12ZM15.3249 22.6943H15.6749V22.3443V11V10.65H15.3249H9H2.68705H2.33705V11V22.3443V22.6943H2.68705H9H15.3249ZM10.9 16.6667C10.9 17.8018 10.0258 18.6976 9 18.6976C7.97419 18.6976 7.1 17.8018 7.1 16.6667C7.1 15.5315 7.97419 14.6357 9 14.6357C10.0258 14.6357 10.9 15.5315 10.9 16.6667Z" stroke="#F20000" stroke-width="0.7"/>
</g>
<defs>
<clipPath id="clip0_434_1905">
<rect width="18" height="25" fill="white"/>
</clipPath>
</defs>
</svg>
