<svg width="24" height="25" viewBox="0 0 24 25" fill="none" xmlns="http://www.w3.org/2000/svg">
<path d="M2.36249 22.9574L2.3625 22.9574L2.36414 22.956L2.36434 22.9559C2.38986 22.9346 4.25304 21.3853 7.15656 21.3853C9.49703 21.3853 10.8958 22.3806 11.5739 22.8631L11.5751 22.864L11.5755 22.8642L11.9275 23.1124C11.9276 23.1125 11.9278 23.1126 11.9279 23.1127C12.6549 23.6388 14.1764 24.7387 16.8428 24.7387C20.0953 24.7387 22.1271 23.0341 22.2197 22.9528L22.22 22.9526C22.3084 22.8744 22.3627 22.7646 22.3709 22.6468C22.3792 22.529 22.3409 22.4127 22.2642 22.3229C22.1876 22.2331 22.0787 22.1771 21.9611 22.1668C21.8435 22.1565 21.7265 22.1929 21.6354 22.268L21.6354 22.268L21.6341 22.2691L21.6336 22.2695C21.6328 22.2702 21.6311 22.2716 21.6284 22.2738L21.6114 22.2876C21.5965 22.2995 21.5745 22.3167 21.5456 22.3385C21.4878 22.3821 21.4026 22.4439 21.2914 22.5178C21.0691 22.6657 20.7433 22.8619 20.3269 23.0577C19.4937 23.4494 18.299 23.8389 16.8428 23.8389C14.4661 23.8389 13.1105 22.8581 12.4549 22.3837L12.4541 22.3831L12.097 22.1295L12.0932 22.1269C11.4026 21.6365 9.78161 20.4854 7.15656 20.4854C3.90246 20.4854 1.87216 22.1928 1.78065 22.271L1.78061 22.2709L1.77795 22.2734C1.69212 22.3523 1.64025 22.4614 1.63324 22.5777C1.62623 22.6941 1.66463 22.8087 1.74037 22.8973C1.81611 22.9859 1.92327 23.0417 2.0393 23.0529C2.15534 23.0641 2.27119 23.0298 2.36249 22.9574Z" fill="#F20000" stroke="#F20000" stroke-width="0.2"/>
<path d="M2.36249 18.9574L2.3625 18.9574L2.36414 18.956L2.36434 18.9559C2.38986 18.9346 4.25304 17.3853 7.15656 17.3853C9.49703 17.3853 10.8958 18.3806 11.5739 18.8631L11.5751 18.864L11.5755 18.8642L11.9275 19.1124C11.9276 19.1125 11.9278 19.1126 11.9279 19.1127C12.6549 19.6388 14.1764 20.7387 16.8428 20.7387C20.0953 20.7387 22.1271 19.0341 22.2197 18.9528L22.22 18.9526C22.3084 18.8744 22.3627 18.7646 22.3709 18.6468C22.3792 18.529 22.3409 18.4127 22.2642 18.3229C22.1876 18.2331 22.0787 18.1771 21.9611 18.1668C21.8435 18.1565 21.7265 18.1929 21.6354 18.268L21.6354 18.268L21.6341 18.2691L21.6336 18.2695C21.6328 18.2702 21.6311 18.2716 21.6284 18.2738L21.6114 18.2876C21.5965 18.2995 21.5745 18.3167 21.5456 18.3385C21.4878 18.3821 21.4026 18.4439 21.2914 18.5178C21.0691 18.6657 20.7433 18.8619 20.3269 19.0577C19.4937 19.4494 18.299 19.8389 16.8428 19.8389C14.4661 19.8389 13.1105 18.8581 12.4549 18.3837L12.4541 18.3831L12.097 18.1295L12.0932 18.1269C11.4026 17.6365 9.78161 16.4854 7.15656 16.4854C3.90246 16.4854 1.87216 18.1928 1.78065 18.271L1.78061 18.2709L1.77795 18.2734C1.69212 18.3523 1.64025 18.4614 1.63324 18.5777C1.62623 18.6941 1.66463 18.8087 1.74037 18.8973C1.81611 18.9859 1.92327 19.0417 2.0393 19.0529C2.15534 19.0641 2.27119 19.0298 2.36249 18.9574Z" fill="#F20000" stroke="#F20000" stroke-width="0.2"/>
<path d="M2.36249 14.9574L2.3625 14.9574L2.36414 14.956L2.36434 14.9559C2.38986 14.9346 4.25304 13.3853 7.15656 13.3853C9.49703 13.3853 10.8958 14.3806 11.5739 14.8631L11.5751 14.864L11.5755 14.8642L11.9275 15.1124C11.9276 15.1125 11.9278 15.1126 11.9279 15.1127C12.6549 15.6388 14.1764 16.7387 16.8428 16.7387C20.0953 16.7387 22.1271 15.0341 22.2197 14.9528L22.22 14.9526C22.3084 14.8744 22.3627 14.7646 22.3709 14.6468C22.3792 14.529 22.3409 14.4127 22.2642 14.3229C22.1876 14.2331 22.0787 14.1771 21.9611 14.1668C21.8435 14.1565 21.7265 14.1929 21.6354 14.268L21.6354 14.268L21.6341 14.2691L21.6336 14.2695C21.6328 14.2702 21.6311 14.2716 21.6284 14.2738L21.6114 14.2876C21.5965 14.2995 21.5745 14.3167 21.5456 14.3385C21.4878 14.3821 21.4026 14.4439 21.2914 14.5178C21.0691 14.6657 20.7433 14.8619 20.3269 15.0577C19.4937 15.4494 18.299 15.8389 16.8428 15.8389C14.4661 15.8389 13.1105 14.8581 12.4549 14.3837L12.4541 14.3831L12.097 14.1295L12.0932 14.1269C11.4026 13.6365 9.78161 12.4854 7.15656 12.4854C3.90246 12.4854 1.87216 14.1928 1.78065 14.271L1.78061 14.2709L1.77795 14.2734C1.69212 14.3523 1.64025 14.4614 1.63324 14.5777C1.62623 14.6941 1.66463 14.8087 1.74037 14.8973C1.81611 14.9859 1.92327 15.0417 2.0393 15.0529C2.15534 15.0641 2.27119 15.0298 2.36249 14.9574Z" fill="#F20000" stroke="#F20000" stroke-width="0.2"/>
<path d="M2.36249 10.9574L2.3625 10.9574L2.36414 10.956L2.36434 10.9559C2.38986 10.9346 4.25304 9.38529 7.15656 9.38529C9.49703 9.38529 10.8958 10.3806 11.5739 10.8631L11.5751 10.864L11.5755 10.8642L11.9275 11.1124C11.9276 11.1125 11.9278 11.1126 11.9279 11.1127C12.6549 11.6388 14.1764 12.7387 16.8428 12.7387C20.0953 12.7387 22.1271 11.0341 22.2197 10.9528L22.22 10.9526C22.3084 10.8744 22.3627 10.7646 22.3709 10.6468C22.3792 10.529 22.3409 10.4127 22.2642 10.3229C22.1876 10.2331 22.0787 10.1771 21.9611 10.1668C21.8435 10.1565 21.7265 10.1929 21.6354 10.268L21.6354 10.268L21.6341 10.2691L21.6336 10.2695C21.6328 10.2702 21.6311 10.2716 21.6284 10.2738L21.6114 10.2876C21.5965 10.2995 21.5745 10.3167 21.5456 10.3385C21.4878 10.3821 21.4026 10.4439 21.2914 10.5178C21.0691 10.6657 20.7433 10.8619 20.3269 11.0577C19.4937 11.4494 18.299 11.8389 16.8428 11.8389C14.4661 11.8389 13.1105 10.8581 12.4549 10.3837L12.4541 10.3831L12.097 10.1295L12.0932 10.1269C11.4026 9.63651 9.78161 8.48545 7.15656 8.48545C3.90246 8.48545 1.87216 10.1928 1.78065 10.271L1.78061 10.2709L1.77795 10.2734C1.69212 10.3523 1.64025 10.4614 1.63324 10.5777C1.62623 10.6941 1.66463 10.8087 1.74037 10.8973C1.81611 10.9859 1.92327 11.0417 2.0393 11.0529C2.15534 11.0641 2.27119 11.0298 2.36249 10.9574Z" fill="#F20000" stroke="#F20000" stroke-width="0.2"/>
<path d="M2.36249 6.95736L2.3625 6.95738L2.36414 6.95602L2.36434 6.95585C2.38986 6.93464 4.25304 5.38529 7.15656 5.38529C9.49703 5.38529 10.8958 6.38056 11.5739 6.8631L11.5751 6.86396L11.5755 6.86421L11.9275 7.1124C11.9276 7.11252 11.9278 7.11263 11.9279 7.11275C12.6549 7.6388 14.1764 8.73873 16.8428 8.73873C20.0953 8.73873 22.1271 7.03407 22.2197 6.95282L22.22 6.95258C22.3084 6.8744 22.3627 6.76459 22.3709 6.64681C22.3792 6.52903 22.3409 6.41271 22.2642 6.32293C22.1876 6.23314 22.0787 6.17706 21.9611 6.16679C21.8435 6.15651 21.7265 6.19286 21.6354 6.268L21.6354 6.26799L21.6341 6.26908L21.6336 6.26952C21.6328 6.27019 21.6311 6.27161 21.6284 6.27382L21.6114 6.28757C21.5965 6.29948 21.5745 6.31671 21.5456 6.3385C21.4878 6.38209 21.4026 6.4439 21.2914 6.51781C21.0691 6.66568 20.7433 6.86185 20.3269 7.05767C19.4937 7.44936 18.299 7.83889 16.8428 7.83889C14.4661 7.83889 13.1105 6.8581 12.4549 6.38365L12.4541 6.38313L12.097 6.12954L12.0932 6.12688C11.4026 5.63651 9.78161 4.48545 7.15656 4.48545C3.90246 4.48545 1.87216 6.19277 1.78065 6.271L1.78061 6.27095L1.77795 6.27339C1.69212 6.35228 1.64025 6.46138 1.63324 6.57775C1.62623 6.69411 1.66463 6.80865 1.74037 6.89727C1.81611 6.98589 1.92327 7.04168 2.0393 7.05288C2.15534 7.06409 2.27119 7.02985 2.36249 6.95736Z" fill="#F20000" stroke="#F20000" stroke-width="0.2"/>
<path d="M2.36249 2.95736L2.3625 2.95738L2.36414 2.95602L2.36434 2.95585C2.38986 2.93464 4.25304 1.38529 7.15656 1.38529C9.49703 1.38529 10.8958 2.38056 11.5739 2.8631L11.5751 2.86396L11.5755 2.86421L11.9275 3.1124C11.9276 3.11252 11.9278 3.11263 11.9279 3.11275C12.6549 3.6388 14.1764 4.73873 16.8428 4.73873C20.0953 4.73873 22.1271 3.03407 22.2197 2.95282L22.22 2.95258C22.3084 2.8744 22.3627 2.76459 22.3709 2.64681C22.3792 2.52903 22.3409 2.41271 22.2642 2.32293C22.1876 2.23314 22.0787 2.17706 21.9611 2.16679C21.8435 2.15651 21.7265 2.19286 21.6354 2.268L21.6354 2.26799L21.6341 2.26908L21.6336 2.26952C21.6328 2.27019 21.6311 2.27161 21.6284 2.27382L21.6114 2.28757C21.5965 2.29948 21.5745 2.31671 21.5456 2.3385C21.4878 2.38209 21.4026 2.4439 21.2914 2.51781C21.0691 2.66568 20.7433 2.86185 20.3269 3.05767C19.4937 3.44936 18.299 3.83889 16.8428 3.83889C14.4661 3.83889 13.1105 2.8581 12.4549 2.38365L12.4541 2.38313L12.097 2.12954L12.0932 2.12688C11.4026 1.63651 9.78161 0.485449 7.15656 0.485449C3.90246 0.485449 1.87216 2.19277 1.78065 2.271L1.78061 2.27095L1.77795 2.27339C1.69212 2.35228 1.64025 2.46138 1.63324 2.57775C1.62623 2.69411 1.66463 2.80865 1.74037 2.89727C1.81611 2.98589 1.92327 3.04168 2.0393 3.05288C2.15534 3.06409 2.27119 3.02985 2.36249 2.95736Z" fill="#F20000" stroke="#F20000" stroke-width="0.2"/>
</svg>
