<svg width="30" height="25" viewBox="0 0 30 25" fill="none" xmlns="http://www.w3.org/2000/svg">
<path d="M0.3 2C0.3 1.06112 1.06112 0.3 2 0.3H15.95V24.7H0.3V2Z" stroke="#F20000" stroke-width="0.6"/>
<path d="M3.35 3.5C3.35 3.14102 3.64102 2.85 4 2.85H13.4492C13.8082 2.85 14.0992 3.14102 14.0992 3.5V21.5C14.0992 21.859 13.8082 22.15 13.4492 22.15H4C3.64102 22.15 3.35 21.859 3.35 21.5V3.5Z" stroke="#F20000" stroke-width="0.7"/>
<path d="M29.65 2C29.65 1.08873 28.9113 0.35 28 0.35H14.1V24.65H29.65V2Z" stroke="#F20000" stroke-width="0.7"/>
<path d="M26.65 3.5C26.65 3.14102 26.359 2.85 26 2.85H16.6814C16.3224 2.85 16.0314 3.14101 16.0314 3.5V21.5C16.0314 21.859 16.3224 22.15 16.6814 22.15H26C26.359 22.15 26.65 21.859 26.65 21.5V3.5Z" stroke="#F20000" stroke-width="0.7"/>
<path d="M22 14.2333H21.65V14.5833V16.655L17.495 12.5L21.65 8.34497V10.4167V10.7667H22H26.65V14.2333H22Z" stroke="#F20000" stroke-width="0.7"/>
<path d="M8 14.2333H8.35V14.5833V16.655L12.505 12.5L8.35 8.34497V10.4167V10.7667H8H3.35V14.2333H8Z" stroke="#F20000" stroke-width="0.7"/>
</svg>
