<svg width="25" height="27" viewBox="0 0 25 27" fill="none" xmlns="http://www.w3.org/2000/svg">
<path d="M0.35 4.76917C0.35 4.68632 0.417157 4.61917 0.5 4.61917H8.49054C8.57338 4.61917 8.64054 4.68632 8.64054 4.76917V11.8461C8.64054 11.9289 8.57338 11.9961 8.49054 11.9961H0.5C0.417157 11.9961 0.35 11.9289 0.35 11.8461V4.76917Z" stroke="#F20000" stroke-width="0.7"/>
<path d="M2.27285 6.30774C2.27285 6.2249 2.34001 6.15774 2.42285 6.15774H6.23054C6.31339 6.15774 6.38054 6.2249 6.38054 6.30774V10.1154C6.38054 10.1983 6.31339 10.2654 6.23054 10.2654H2.42285C2.34001 10.2654 2.27285 10.1983 2.27285 10.1154V6.30774Z" stroke="#F20000" stroke-width="0.7"/>
<path d="M16.3617 15.1538C16.3617 15.071 16.4289 15.0038 16.5117 15.0038H24.4999C24.5827 15.0038 24.6499 15.071 24.6499 15.1538V22.2307C24.6499 22.3136 24.5827 22.3807 24.4999 22.3807H16.5117C16.4289 22.3807 16.3617 22.3136 16.3617 22.2307V15.1538Z" stroke="#F20000" stroke-width="0.7"/>
<path d="M18.6195 16.8848C18.6195 16.802 18.6867 16.7348 18.7695 16.7348L22.5772 16.7348C22.6601 16.7348 22.7272 16.8019 22.7272 16.8848V20.6925C22.7272 20.7753 22.6601 20.8425 22.5772 20.8425H18.7695C18.6867 20.8425 18.6195 20.7753 18.6195 20.6925V16.8848Z" stroke="#F20000" stroke-width="0.7"/>
<path d="M11.8391 3.05381C11.4801 3.05381 11.1891 3.34482 11.1891 3.70381V23.2961C11.1891 23.6551 11.4801 23.9461 11.8391 23.9461H13.1621C13.5211 23.9461 13.8121 23.6551 13.8121 23.2961V3.70381C13.8121 3.34482 13.5211 3.05381 13.1621 3.05381H11.8391Z" stroke="#F20000" stroke-width="0.7"/>
<rect x="8.6543" y="1" width="7.69231" height="25" rx="1" stroke="#F20000" stroke-width="0.7"/>
</svg>
