<svg width="26" height="26" viewBox="0 0 26 26" fill="none" xmlns="http://www.w3.org/2000/svg">
<path d="M1 6.53846V14.8461L13 12.5385L25 14.8461V6.53846L13 1L1 6.53846Z" stroke="#F20000" stroke-width="0.7"/>
<path d="M1 6.57703V14.8847L13 12.577L25 14.8847V6.57703L13 1.03857L1 6.57703Z" stroke="#F20000" stroke-width="0.7"/>
<path d="M4 7.36508V12L13 10L22 12V7.36508L13 4L4 7.36508Z" stroke="#F20000" stroke-width="0.7"/>
<path d="M12.8059 24.9113C12.9235 24.9897 13.0767 24.9897 13.1942 24.9113L17.2592 22.2014C17.5932 21.9787 17.3505 21.4605 16.9656 21.5746L13.2984 22.6612C13.1037 22.7188 12.8965 22.7188 12.7018 22.6612L9.03453 21.5746C8.64962 21.4605 8.40693 21.9787 8.74095 22.2014L12.8059 24.9113Z" stroke="#F20000" stroke-width="0.7"/>
<path d="M12.8059 20.2961C12.9235 20.3745 13.0767 20.3745 13.1942 20.2961L17.2592 17.5861C17.5932 17.3634 17.3505 16.8453 16.9656 16.9593L13.2984 18.0459C13.1037 18.1036 12.8965 18.1036 12.7018 18.0459L9.03453 16.9593C8.64962 16.8453 8.40693 17.3634 8.74095 17.5861L12.8059 20.2961Z" stroke="#F20000" stroke-width="0.7"/>
</svg>
