<svg width="24" height="25" viewBox="0 0 24 25" fill="none" xmlns="http://www.w3.org/2000/svg">
<g clip-path="url(#clip0_434_1947)">
<path d="M15.1996 7.93333H15.5996H21.5996C21.8128 7.93333 22.0166 7.84928 22.1664 7.70068C22.3161 7.55219 22.3996 7.35147 22.3996 7.14286V1.19048C22.3996 0.981861 22.3161 0.781142 22.1664 0.63265C22.0166 0.48405 21.8128 0.4 21.5996 0.4H7.89338L1.44098 3.60118L1.44087 3.60124C1.30777 3.66722 1.19626 3.76843 1.1185 3.89315C1.04079 4.01778 0.999728 4.16112 0.999609 4.30714L15.1996 7.93333ZM15.1996 7.93333V8.33333M15.1996 7.93333V8.33333M15.1996 8.33333V23.8095C15.1996 24.0181 15.1161 24.2189 14.9664 24.3673C14.8166 24.516 14.6128 24.6 14.3996 24.6H9.59961C9.38641 24.6 9.18258 24.516 9.03279 24.3674C8.88311 24.2189 8.79961 24.0181 8.79961 23.8095V8.33333V7.93333M15.1996 8.33333L8.79961 7.93333M8.79961 7.93333H8.39961M8.79961 7.93333H8.39961M8.39961 7.93333H1.79961C1.58641 7.93333 1.38258 7.84928 1.2328 7.70068L0.951081 7.98465M8.39961 7.93333L0.951081 7.98465M0.951081 7.98465L1.23279 7.70068C1.08311 7.55219 0.999609 7.35147 0.999609 7.14286M0.951081 7.98465L0.999609 7.14286M0.999609 7.14286V4.30726V7.14286ZM15.9996 2.38095V1.98095H15.5996H8.36601H8.27225L8.18826 2.02261L2.82186 4.68452L2.59961 4.79476V5.04286V5.95238V6.35238H2.99961H10.3996V22.619V23.019H10.7996H13.1996H13.5996V22.619V6.35238H15.5996H15.9996V5.95238V2.38095ZM20.7996 2.38095V1.98095H20.3996H17.9996H17.5996V2.38095V5.95238V6.35238H17.9996H20.3996H20.7996V5.95238V2.38095Z" fill="#F20000" stroke="#FAFAFA" stroke-width="0.8"/>
<path d="M12 22L12 7" stroke="#F20000" stroke-width="0.7"/>
</g>
<defs>
<clipPath id="clip0_434_1947">
<rect width="24" height="25" fill="white"/>
</clipPath>
</defs>
</svg>
