<svg width="13" height="27" viewBox="0 0 13 27" fill="none" xmlns="http://www.w3.org/2000/svg">
<path d="M11.5187 8.57849L11.5187 8.57847L11.5157 8.5743L9.38283 5.63988C9.3655 5.60713 9.34594 5.57437 9.3231 5.54225C9.40457 5.35044 9.43372 5.15286 9.43372 4.94191V2.14108C9.43372 1.3299 8.76989 0.65 7.95814 0.65H4.93953C4.12778 0.65 3.46395 1.3299 3.46395 2.14108V4.94191C3.46395 5.18701 3.53282 5.39573 3.60793 5.56737C3.59358 5.59006 3.57919 5.61479 3.56497 5.64184L1.48515 8.5731C0.922383 9.31722 0.65 10.2747 0.65 11.2178V24.8071C0.65 25.6701 1.31383 26.35 2.17674 26.35H10.8233C11.635 26.35 12.35 25.6182 12.35 24.8071V11.2178C12.35 10.2656 12.0728 9.365 11.5187 8.57849Z" stroke="#F20000" stroke-width="0.7"/>
<path d="M9.77093 11.9466V23.734H3.14535V11.9466C3.14535 11.4184 3.29341 10.9349 3.54951 10.5339L5.26246 7.92827C5.32692 7.83532 5.38941 7.80802 5.47442 7.80802H7.44186C7.52687 7.80802 7.58935 7.83532 7.65381 7.92826L9.36678 10.5339C9.62287 10.935 9.77093 11.4184 9.77093 11.9466Z" stroke="#F20000" stroke-width="0.7"/>
<rect x="5.25" y="2.25" width="2.5" height="2.5" stroke="#F20000" stroke-width="0.5"/>
</svg>
