<svg width="22" height="27" viewBox="0 0 22 27" fill="none" xmlns="http://www.w3.org/2000/svg">
<path d="M11.2272 0.733802L11 0.539816L10.7728 0.733802C7.4279 3.58917 4.9029 6.26218 3.21191 8.75509C1.5217 11.2468 0.65 13.5807 0.65 15.75C0.65 22.179 5.56759 26.35 11 26.35C16.4324 26.35 21.35 22.179 21.35 15.75C21.35 13.5807 20.4783 11.2468 18.7881 8.75509C17.0971 6.26218 14.5721 3.58917 11.2272 0.733802ZM7.05668 16.7114L7.05669 16.7114L7.05607 16.7082C6.93808 16.1014 6.42527 15.65 5.7875 15.65C5.00099 15.65 4.37868 16.3657 4.51789 17.1488L4.51853 17.1522C5.26955 21.1444 8.56609 22.7573 11.3695 22.587C12.0509 22.5518 12.6 21.9897 12.6 21.3C12.6 20.5604 11.9808 19.9787 11.2462 20.0129L11.2462 20.0127L11.2343 20.0136C9.66687 20.1404 7.52877 19.2677 7.05668 16.7114ZM11 23.15C7.01033 23.15 3.85 20.0988 3.85 15.75C3.85 14.3816 4.42212 12.7485 5.64508 10.8656C6.8273 9.04547 8.60206 7.01599 11 4.80029C13.3981 7.01593 15.1728 9.04245 16.355 10.8611C17.5778 12.7422 18.15 14.3752 18.15 15.75C18.15 20.0988 14.9897 23.15 11 23.15Z" stroke="#F20000" stroke-width="0.7"/>
</svg>
