<svg width="39" height="39" viewBox="0 0 39 39" fill="none" xmlns="http://www.w3.org/2000/svg">
<path d="M34.8854 9.00352L26.3922 0.639844C26.2779 0.525586 26.118 0.457031 25.9504 0.457031H10.2818C7.91289 0.457031 5.99336 2.4832 5.99336 4.98164V21.6785H3.90625V32.9977H5.99336V34.0184C5.99336 36.5092 7.92051 38.543 10.2818 38.543H30.8025C33.1715 38.543 35.091 36.5168 35.091 34.0184V9.49863C35.091 9.31582 35.0225 9.13301 34.8854 9.00352ZM25.7371 1.85859L33.1258 9.14062H29.1039C27.2453 9.14062 25.7371 7.65527 25.7371 5.83477V1.85859ZM33.7961 34.0184C33.7961 35.7627 32.4555 37.1795 30.8025 37.1795H10.2818C8.62891 37.1795 7.28828 35.7627 7.28828 34.0184V32.9977H21.5324C24.3127 32.9977 26.5598 30.4611 26.5598 27.3381C26.5598 24.215 24.3051 21.6785 21.5324 21.6785H7.28828V4.98164C7.28828 3.2373 8.62891 1.82051 10.2818 1.82051H24.4422V5.83477C24.4422 8.40937 26.5293 10.5041 29.1039 10.5041H33.7961V34.0184ZM7.91289 30.1945V24.4816H10.099C10.7313 24.4816 11.2264 24.6416 11.5768 24.9691C11.9271 25.2967 12.11 25.7232 12.11 26.2564C12.11 26.7896 11.9348 27.2238 11.5768 27.5438C11.2188 27.8637 10.7236 28.0312 10.099 28.0312H8.86504V30.1945H7.91289ZM13.2678 30.1945V24.4816H15.1568C15.8805 24.4816 16.467 24.7102 16.924 25.1596C17.3811 25.609 17.602 26.1955 17.602 26.9039V27.7723C17.602 28.4883 17.3734 29.0672 16.924 29.5166C16.467 29.966 15.8805 30.1945 15.1568 30.1945H13.2678ZM22.1494 26.9953V27.757H19.849V30.1945H18.8893V24.4816H22.5455V25.2434H19.8414V26.9877H22.1494V26.9953Z" fill="#ED1C24"/>
<path d="M10.8971 26.9801C11.0723 26.7896 11.1637 26.5535 11.1637 26.2641C11.1637 25.9746 11.0723 25.7309 10.8971 25.5404C10.7219 25.35 10.4553 25.251 10.0973 25.251H8.86328V27.2695H10.0973C10.4553 27.2619 10.7143 27.1705 10.8971 26.9801Z" fill="#ED1C24"/>
<path d="M15.1557 25.251H14.2188V29.4404H15.1557C15.6127 29.4404 15.9783 29.2881 16.2449 28.9758C16.5115 28.6635 16.6486 28.2674 16.6486 27.7799V26.9039C16.6486 26.424 16.5115 26.0279 16.2449 25.7156C15.9783 25.4033 15.6127 25.251 15.1557 25.251Z" fill="#ED1C24"/>
</svg>
