<svg width="19" height="24" viewBox="0 0 19 24" fill="none" xmlns="http://www.w3.org/2000/svg">
<path fill-rule="evenodd" clip-rule="evenodd" d="M19 6.31575V22.1051C19 23.1517 18.1198 24 17.0345 24H1.96553C0.879816 24 0 23.1517 0 22.1051V1.89488C0 0.84825 0.879816 0 1.96553 0H12.4481L19 6.31575Z" fill="#CB0606"/>
<path fill-rule="evenodd" clip-rule="evenodd" d="M18.9999 5.96212V6.74813H13.6439C12.5349 6.74813 12.0234 5.87813 12.0234 4.80525V0H12.8346L18.9999 5.96212Z" fill="#FB8D8D"/>
<path fill-rule="evenodd" clip-rule="evenodd" d="M14.5816 12.7676C14.4125 12.7136 14.2497 12.6862 14.0926 12.6862C13.9143 12.6862 13.7917 12.7218 13.7246 12.7931C13.6579 12.8643 13.6246 12.9903 13.6246 13.1714V13.5176H14.3741V14.2128H13.6246V17.0759H12.7165V14.2128H12.2485V13.5176H12.7165V13.1714C12.7165 12.7304 12.8297 12.4117 13.0561 12.2148C13.2826 12.0179 13.623 11.9197 14.0783 11.9197C14.2919 11.9197 14.5184 11.9478 14.7576 12.0044L14.5816 12.7676ZM10.7777 16.7298C10.6086 16.8678 10.4303 16.9777 10.2426 17.0591C10.0549 17.1404 9.84166 17.1809 9.60241 17.1809C9.13788 17.1809 8.78231 17.0193 8.53609 16.6961C8.28947 16.3724 8.16656 15.9157 8.16656 15.3254C8.16656 14.7217 8.30188 14.2526 8.57292 13.9177C8.84397 13.5832 9.22435 13.4156 9.71486 13.4156C9.88858 13.4156 10.0666 13.4501 10.2496 13.5191C10.4326 13.5881 10.5842 13.6758 10.7036 13.7819V12.0247H11.6118V17.0759H10.7777V16.7298ZM10.7036 14.5046C10.6075 14.4209 10.4884 14.3467 10.3465 14.2822C10.2046 14.2181 10.0596 14.1858 9.91184 14.1858C9.66794 14.1858 9.47213 14.2871 9.32439 14.4892C9.17627 14.6917 9.1026 14.9658 9.1026 15.3119C9.1026 15.6536 9.16309 15.9213 9.28368 16.1159C9.40466 16.3106 9.59156 16.4077 9.84515 16.4077C9.99521 16.4077 10.1484 16.3743 10.3043 16.3076C10.4601 16.2408 10.5935 16.1587 10.7036 16.0616V14.5046ZM6.82221 16.9503C6.59925 17.1041 6.33325 17.1809 6.02343 17.1809C5.61513 17.1809 5.26692 17.0579 4.97843 16.8112V18.4158H4.07031V13.5176H4.90786V13.8667C5.07692 13.7264 5.25452 13.6162 5.44103 13.5359C5.62754 13.4557 5.84158 13.4156 6.08315 13.4156C6.55001 13.4156 6.90558 13.5738 7.14948 13.8907C7.39337 14.2072 7.51552 14.6673 7.51552 15.2711C7.51552 15.6536 7.4558 15.9903 7.33599 16.2821C7.21617 16.5738 7.04517 16.7966 6.82221 16.9503ZM6.39297 14.4757C6.2685 14.2822 6.08315 14.1858 5.83692 14.1858C5.68919 14.1858 5.53719 14.2192 5.38131 14.2856C5.22505 14.3523 5.09088 14.4344 4.97843 14.5316V16.0886C5.0746 16.1726 5.19364 16.2464 5.33556 16.3109C5.47748 16.3754 5.62327 16.4077 5.77372 16.4077C6.02227 16.4077 6.21886 16.3053 6.36311 16.1006C6.50735 15.8958 6.57948 15.6239 6.57948 15.2849C6.57948 14.9388 6.51705 14.6692 6.39297 14.4757Z" fill="white"/>
</svg>
