<svg width="20" height="20" viewBox="0 0 20 20" fill="none" xmlns="http://www.w3.org/2000/svg">
<path d="M10.417 5.83333H9.16699V10.8333L13.542 13.4583L14.167 12.4333L10.417 10.2083V5.83333Z" fill="#F20000"/>
<path d="M1.81699 10.0001C1.81699 5.48273 5.47503 1.81675 9.99199 1.81675C14.5176 1.81675 18.1837 5.48302 18.1837 10.0001C18.1837 14.5171 14.5176 18.1834 9.99199 18.1834C5.47503 18.1834 1.81699 14.5174 1.81699 10.0001ZM3.18366 10.0001C3.18366 13.7663 6.23415 16.8167 10.0003 16.8167C13.7665 16.8167 16.817 13.7663 16.817 10.0001C16.817 6.23391 13.7665 3.18341 10.0003 3.18341C6.23415 3.18341 3.18366 6.23391 3.18366 10.0001Z" fill="#F20000" stroke="white" stroke-width="0.3"/>
</svg>
