<svg width="20" height="18" viewBox="0 0 20 18" fill="none" xmlns="http://www.w3.org/2000/svg">
<g clip-path="url(#clip0_528_24430)">
<path d="M2.63132 9.1501H2.78132V9.0001C2.78132 4.47755 6.42684 0.811865 10.9208 0.811865C15.4148 0.811865 19.0603 4.47755 19.0603 9.0001C19.0603 13.5226 15.4148 17.1883 10.9208 17.1883C8.72282 17.1883 6.74029 16.3131 5.27536 14.8915L6.3716 13.7888C7.55006 14.9301 9.15549 15.6354 10.9208 15.6354C14.5689 15.6354 17.5182 12.6676 17.5182 9.0001C17.5182 5.33265 14.5689 2.36481 10.9208 2.36481C7.27265 2.36481 4.32343 5.33265 4.32343 9.0001V9.1501H4.47343H6.87532L3.54794 12.4888L0.228799 9.1501H2.63132ZM11.2313 9.13907V9.2242L11.3044 9.26785L14.4177 11.1272L13.8624 12.0557L10.1497 9.84138V5.44422H11.2313V9.13907Z" fill="#333333" stroke="#F5F5F5" stroke-width="0.3"/>
</g>
<defs>
<clipPath id="clip0_528_24430">
<rect width="20" height="18" fill="white"/>
</clipPath>
</defs>
</svg>
