<svg width="27" height="22" viewBox="0 0 27 22" fill="none" xmlns="http://www.w3.org/2000/svg">
<path d="M27 9.53445C27 8.50526 26.1638 7.66905 25.1346 7.66905H23.5185C23.4783 7.5806 23.4381 7.49216 23.3818 7.41175L19.6992 1.67887C19.4339 1.2688 19.0238 0.979347 18.5494 0.87482C18.067 0.770293 17.5846 0.85874 17.1665 1.12408C16.3142 1.67083 16.073 2.80454 16.6197 3.65684L19.1927 7.66101H7.81537L10.3883 3.65684C10.5813 3.35934 10.6778 3.02164 10.6778 2.66785C10.6778 2.04069 10.3642 1.46178 9.83354 1.12408C9.42347 0.85874 8.933 0.770293 8.45057 0.87482C7.97618 0.979347 7.56611 1.26076 7.30078 1.67887L3.61823 7.41175C3.56194 7.49216 3.52174 7.5806 3.48154 7.66905H1.8654C0.836213 7.66905 0 8.50526 0 9.53445V9.65505C0 10.6842 0.836213 11.5205 1.8654 11.5205H2.04229L5.10572 21.5148C5.18613 21.7721 5.4193 21.941 5.68464 21.941H21.2993C21.5646 21.941 21.7978 21.7641 21.8782 21.5148L24.9416 11.5205H25.1185C26.1477 11.5205 26.9839 10.6842 26.9839 9.65505V9.53445H27ZM17.6248 3.0136C17.4399 2.72414 17.5203 2.33819 17.8097 2.14522C17.9544 2.05677 18.1153 2.02461 18.2841 2.05677C18.4449 2.08894 18.5896 2.18542 18.6781 2.33015L22.1033 7.66101H20.6159L17.6248 3.0136ZM8.32192 2.33015C8.41037 2.18542 8.5551 2.08894 8.71591 2.05677C8.87672 2.02461 9.04557 2.04873 9.1903 2.14522C9.36719 2.25779 9.47976 2.4588 9.47976 2.67589C9.47976 2.7965 9.44759 2.90907 9.38327 3.0136L6.3922 7.66905H4.90471L8.32192 2.33015ZM20.8651 20.7349H6.1349L3.30465 11.5205H23.6873L20.8651 20.7349ZM25.7939 9.65505C25.7939 10.0169 25.4964 10.3144 25.1346 10.3144H24.5155H24.5075H2.5006H2.49256H1.87344C1.51162 10.3144 1.21412 10.0169 1.21412 9.65505V9.53445C1.21412 9.17262 1.51162 8.87513 1.87344 8.87513H3.93181H3.93985H6.70578H20.2782H23.0441C23.0441 8.87513 23.0441 8.87513 23.0521 8.87513H25.1185C25.4804 8.87513 25.7779 9.17262 25.7779 9.53445V9.65505H25.7939Z" fill="#F20000"/>
<path d="M9.7129 18.3709C10.0426 18.3709 10.3159 18.0975 10.3159 17.7678V14.4873C10.3159 14.1577 10.0426 13.8843 9.7129 13.8843C9.38324 13.8843 9.10986 14.1577 9.10986 14.4873V17.7678C9.10986 18.1055 9.38324 18.3709 9.7129 18.3709Z" fill="#F20000"/>
<path d="M13.5 18.3709C13.8297 18.3709 14.1031 18.0975 14.1031 17.7678V14.4873C14.1031 14.1577 13.8297 13.8843 13.5 13.8843C13.1704 13.8843 12.897 14.1577 12.897 14.4873V17.7678C12.897 18.1055 13.1704 18.3709 13.5 18.3709Z" fill="#F20000"/>
<path d="M17.2871 18.3709C17.6168 18.3709 17.8902 18.0975 17.8902 17.7678V14.4873C17.8902 14.1577 17.6168 13.8843 17.2871 13.8843C16.9575 13.8843 16.6841 14.1577 16.6841 14.4873V17.7678C16.6841 18.1055 16.9494 18.3709 17.2871 18.3709Z" fill="#F20000"/>
</svg>
