<svg width="24" height="24" viewBox="0 0 24 24" fill="none" xmlns="http://www.w3.org/2000/svg">
<path d="M18.7203 6.71984C19.5156 6.71984 20.1603 6.07513 20.1603 5.27984C20.1603 4.48455 19.5156 3.83984 18.7203 3.83984C17.925 3.83984 17.2803 4.48455 17.2803 5.27984C17.2803 6.07513 17.925 6.71984 18.7203 6.71984Z" stroke="#F20000" stroke-width="1.17647" stroke-miterlimit="10" stroke-linecap="round"/>
<path d="M22.5601 2.63994C22.5601 1.97706 22.0229 1.43994 21.3601 1.43994C21.2852 1.43994 14.2196 1.4409 14.2196 1.4409C13.5812 1.4409 12.9701 1.4073 12.6159 1.76154L1.70598 12.671C1.35126 13.0252 1.35126 13.6003 1.70598 13.9545L10.0455 22.294C10.3997 22.6483 10.9748 22.6483 11.329 22.294L22.2385 11.3841C22.5927 11.0303 22.5591 10.4337 22.5591 9.7809C22.5591 9.7809 22.5601 2.71482 22.5601 2.63994Z" stroke="#F20000" stroke-width="1.17647" stroke-miterlimit="10" stroke-linecap="round"/>
<path d="M15.358 11.9878C15.3527 11.2563 15.1579 10.6981 14.7739 10.3145C14.3793 9.91998 13.8844 9.76254 13.2902 9.84126C12.8164 9.90414 12.3167 10.1096 11.7907 10.4571L14.0236 12.6901L13.3295 12.9584L11.254 10.8829C11.2065 10.9198 11.1623 10.9597 11.1206 11.0019C11.0783 11.0441 11.039 11.0835 11.002 11.12C10.9708 11.1517 10.9415 11.1805 10.9151 11.2073C10.8887 11.2337 10.8647 11.2616 10.8441 11.2937L12.8092 13.2589L12.1228 13.5353L10.402 11.8145C9.44442 13.1197 9.37866 14.1848 10.2047 15.0109C10.4567 15.2629 10.7308 15.4376 11.0255 15.5317C11.2415 15.6008 11.5622 15.6416 11.9884 15.6579L11.1595 16.4869C10.5811 16.3606 10.0627 16.0688 9.60474 15.6113C8.31594 14.3221 8.3265 12.8014 9.63642 11.0494L9.02874 10.4417L9.72282 10.1729L10.0862 10.5363C10.1068 10.5046 10.1308 10.4758 10.1567 10.4494C10.1827 10.423 10.2095 10.3966 10.2359 10.3702C10.283 10.3232 10.3276 10.2785 10.3699 10.2363C10.4121 10.1941 10.4539 10.1576 10.4966 10.1259L9.9201 9.55038L10.607 9.2739L11.0332 9.70014C11.8065 9.17934 12.5558 8.90862 13.2825 8.8875C14.1038 8.8563 14.8243 9.15054 15.4454 9.77118C15.9239 10.2502 16.2345 10.892 16.3761 11.6974L15.358 11.9878Z" fill="#F20000"/>
</svg>
