<svg width="19" height="27" viewBox="0 0 19 27" fill="none" xmlns="http://www.w3.org/2000/svg">
<path d="M16.2371 20.0607L12.2199 18.0584V17.4556C13.3289 16.5944 14.5423 15.0226 15.5676 12.2239C16.1116 12.2023 16.5718 11.944 16.8857 11.4918C17.2832 10.932 17.346 10.157 17.074 9.55411C16.8857 9.14504 16.5509 8.84359 16.1324 8.71446C16.0278 3.71946 13.559 0.748047 9.49983 0.748047C5.4407 0.748047 2.99302 3.69771 2.86724 8.6928V8.71433C2.44879 8.84352 2.11403 9.14494 1.9257 9.55399C1.65371 10.1568 1.71648 10.9319 2.114 11.4917C2.42784 11.9438 2.88817 12.1807 3.43211 12.2237C4.45734 15.0227 5.6708 16.5943 6.77972 17.4554V18.0583L2.76258 20.0391C1.90473 20.4697 1.33984 21.3739 1.33984 22.3643V26.1967H17.6595V22.3858C17.6595 21.3954 17.0946 20.4912 16.2368 20.0606L16.2371 20.0607ZM16.3208 9.89849C16.4672 10.2214 16.4254 10.6736 16.2162 10.975C16.1534 11.0827 16.0279 11.1903 15.8814 11.2549C16.0069 10.7382 16.0906 10.1353 16.1325 9.6186C16.1952 9.70472 16.258 9.79084 16.3208 9.89849ZM9.50024 1.60925C13.0989 1.60925 15.2122 4.21443 15.2959 8.75727C12.8689 9.31706 10.7976 8.21899 8.97753 7.25016C7.45016 6.43201 6.13206 5.72154 4.89765 6.19516C4.52104 6.34587 4.18628 6.5827 3.87241 6.94869C4.4164 3.52542 6.40407 1.6092 9.50072 1.6092L9.50024 1.60925ZM2.78396 10.9748C2.57473 10.6733 2.53289 10.2212 2.67935 9.89825C2.72119 9.7906 2.80488 9.70448 2.88857 9.63989C2.93042 10.2427 3.03503 10.781 3.16057 11.2762C2.99319 11.2116 2.86765 11.1039 2.78396 10.9748ZM4.12301 11.6422C3.91378 10.8671 3.70455 10.0704 3.70455 9.05855V8.86478C4.14393 7.83133 4.62515 7.20693 5.19004 6.99167C6.06879 6.64719 7.24045 7.27157 8.6004 8.00357C10.1068 8.80021 11.8853 9.76904 13.9566 9.76904C14.375 9.76904 14.8144 9.72598 15.2747 9.63986C15.2119 10.2858 15.0864 11.1039 14.8981 11.6422C13.015 17.0461 10.5043 17.6273 9.49981 17.6273C8.51647 17.6273 6.00576 17.046 4.12258 11.6422L4.12301 11.6422ZM9.50024 18.4885C9.93962 18.4885 10.6092 18.4024 11.3833 17.9933V18.467L10.0024 19.8234L9.98146 19.8449C9.73039 20.1248 9.27009 20.1248 9.01902 19.8449L7.61723 18.467V17.9933C8.39139 18.4024 9.06091 18.4885 9.50026 18.4885L9.50024 18.4885ZM4.89726 25.3349V24.689H4.06036V25.3349H2.17732V22.3852C2.17732 21.7178 2.55393 21.115 3.11886 20.835L6.88494 18.9619L8.39137 20.4475C8.45413 20.5337 8.53782 20.5983 8.62151 20.6413L8.07753 25.3349L4.89726 25.3349ZM8.93535 25.3349L9.45844 20.9212H9.50029H9.54213L10.0652 25.3349H8.93535ZM16.8233 25.3349H14.9403V24.689H14.1034V25.3349H10.9231L10.3582 20.6413C10.4419 20.5767 10.5256 20.5121 10.5884 20.4475L12.0948 18.9619L15.8609 20.835C16.4467 21.1149 16.8024 21.7393 16.8024 22.3852V25.3348L16.8233 25.3349Z" fill="#F20000"/>
</svg>
