<svg width="22" height="23" viewBox="0 0 22 23" fill="none" xmlns="http://www.w3.org/2000/svg">
<g clip-path="url(#clip0_465_11369)">
<path d="M3.25974 10.071L3.35505 10.1013C3.47638 9.71908 3.81257 9.44652 4.2085 9.40834L4.2989 9.39962V9.39886L8.33842 8.99686L8.39675 8.99106L8.42018 8.93733L10.0869 5.11491L10.0869 5.11484C10.2458 4.74962 10.6039 4.51406 10.9989 4.51406C11.394 4.51406 11.752 4.74963 11.9104 5.11475L11.9104 5.1148L13.5775 8.95107L13.6009 9.00491L13.6594 9.01072L17.7885 9.42164C17.7886 9.42165 17.7886 9.42166 17.7887 9.42166C18.1798 9.46251 18.5112 9.73157 18.6329 10.1093L18.6329 10.1093C18.7547 10.4867 18.6441 10.9012 18.3511 11.1657C18.351 11.1658 18.3509 11.166 18.3507 11.1661L15.2493 13.9054L15.2054 13.9441L15.2177 14.0014L16.1023 18.1117C16.1023 18.1118 16.1023 18.1119 16.1023 18.112C16.1842 18.4999 16.0317 18.9 15.714 19.1328C15.4021 19.3608 14.9882 19.387 14.6517 19.2018L14.6317 19.1899L11.053 17.0802L11.0022 17.0502L10.9514 17.0802L7.37323 19.1901C7.37312 19.1902 7.37301 19.1903 7.3729 19.1903C7.03299 19.388 6.60865 19.3654 6.29051 19.1328C5.9729 18.9002 5.8203 18.5003 5.90199 18.1125L5.90209 18.1125L6.78667 14.0019L6.79898 13.9446L6.75511 13.9059L3.65291 11.1654L3.65235 11.1649C3.35091 10.9026 3.23411 10.484 3.35509 10.1011L3.25974 10.071ZM3.25974 10.071C3.39309 9.65095 3.76278 9.35085 4.1989 9.3088L3.58671 11.2403C3.25499 10.9517 3.12685 10.4915 3.25974 10.071ZM14.4797 13.0585L17.1168 10.6915L17.2853 10.5403L17.06 10.5176L13.3879 10.1479C13.3877 10.1479 13.3875 10.1479 13.3872 10.1478C13.0253 10.1055 12.7144 9.8665 12.5781 9.52491L12.5781 9.52489L12.577 9.52226L11.094 6.09694L11.0022 5.88498L10.9104 6.09694L9.42741 9.52226L9.42737 9.52224L9.42631 9.52491C9.28993 9.86651 8.97911 10.1055 8.61716 10.1478L4.93723 10.5176L4.71194 10.5403L4.88042 10.6915L7.64219 13.1711C7.64224 13.1711 7.64228 13.1712 7.64232 13.1712C7.90929 13.4119 8.02759 13.7782 7.95168 14.1307C7.95167 14.1307 7.95166 14.1308 7.95165 14.1309L7.16249 17.7615L7.11385 17.9853L7.31104 17.8689L10.5018 15.9853C10.5018 15.9853 10.5018 15.9853 10.5019 15.9853C10.8114 15.8039 11.1931 15.8039 11.5026 15.9853L14.6934 17.8624L14.8904 17.9782L14.8419 17.7549L14.0527 14.1242C14.0527 14.1242 14.0527 14.1241 14.0527 14.1241C13.9768 13.7715 14.0951 13.4052 14.3622 13.1645L14.4797 13.0585Z" fill="#F20000" stroke="#FAFAFA" stroke-width="0.2"/>
<path d="M5.21404 2.6194C8.15206 0.766099 11.7897 0.430368 15.013 1.71547L15.013 1.71557L15.0174 1.7171C15.1671 1.76885 15.2894 1.87971 15.3559 2.02459C15.4224 2.16961 15.4273 2.33545 15.3693 2.48414C15.3113 2.63286 15.1958 2.75107 15.0494 2.81178C14.9028 2.87209 14.7387 2.86997 14.594 2.80527L14.5941 2.80519L14.5902 2.80366C11.7141 1.65731 8.46728 1.95772 5.84624 3.61145L5.84624 3.61146C3.22488 5.26566 1.54161 8.07648 1.31149 11.182L1.31149 11.182C1.08187 14.288 2.33258 17.319 4.68109 19.3458C7.02967 21.3731 10.1959 22.1545 13.2098 21.4504C16.2232 20.7465 18.7246 18.6412 19.9467 15.7803C21.1688 12.9189 20.9669 9.64338 19.4025 6.95677L19.4022 6.95633C19.2383 6.67805 19.3299 6.31909 19.6052 6.15438L19.6052 6.15435C19.7396 6.07456 19.9 6.05234 20.0501 6.09297C20.2007 6.13374 20.329 6.23362 20.4056 6.37064L20.4055 6.37065L20.4064 6.37217C22.1592 9.38455 22.3846 13.0567 21.0136 16.2632C19.6426 19.4697 16.8389 21.8282 13.4622 22.6166C10.0851 23.4045 6.53719 22.528 3.90523 20.2556C1.2737 17.9832 -0.12787 14.5859 0.130329 11.1041C0.389072 7.6227 2.27646 4.47273 5.21404 2.6194ZM5.21404 2.6194L5.16069 2.53482M5.21404 2.6194L5.16069 2.53482M5.16069 2.53482C8.12573 0.664473 11.797 0.325611 15.0501 1.62258L5.16069 2.53482Z" fill="#F20000" stroke="#FAFAFA" stroke-width="0.2"/>
<path d="M17.8811 5.12294C18.1441 5.39341 18.575 5.39819 18.8436 5.13346C19.1122 4.86872 19.1169 4.43435 18.854 4.16387C18.3439 3.65399 17.7853 3.19524 17.1868 2.79386C17.0464 2.63856 16.8432 2.55684 16.6354 2.57213C16.4275 2.58695 16.2377 2.69733 16.1209 2.87127C16.0037 3.04522 15.9729 3.26359 16.036 3.46334C16.0991 3.66356 16.25 3.82317 16.4455 3.89677C16.9619 4.25803 17.4426 4.66852 17.8811 5.12291L17.8811 5.12294Z" fill="#F20000"/>
</g>
<defs>
<clipPath id="clip0_465_11369">
<rect width="22" height="23" fill="white"/>
</clipPath>
</defs>
</svg>
